<svg width="402" height="229" viewBox="0 0 402 229" fill="none" xmlns="http://www.w3.org/2000/svg">
<path d="M84.6301 194.03H156.195" stroke="#DEEDF2" stroke-width="2.76986" stroke-dasharray="5 5"/>
<path d="M376.04 117.038C376.139 117.136 376.218 117.215 376.316 117.314" stroke="#DEEDF2" stroke-width="2.76986"/>
<path d="M376.889 117.906C387.507 128.958 394.119 143.899 394.316 160.379" stroke="#DEEDF2" stroke-width="2.76986" stroke-dasharray="5 5"/>
<path d="M84.63 194.03C84.4918 194.03 84.3734 194.03 84.2352 194.01M394.336 160.793C394.336 160.932 394.336 161.07 394.336 161.208V160.793Z" stroke="#DEEDF2" stroke-width="2.76986"/>
<path d="M83.4064 194.01C41.5649 193.359 7.83521 159.234 7.83521 117.215C7.83521 75.0777 41.782 40.8743 83.8209 40.4204" stroke="#DEEDF2" stroke-width="2.76986" stroke-dasharray="5 5"/>
<path d="M293.364 149.129C293.482 149.05 293.581 148.991 293.699 148.912M84.2352 40.4204C84.3734 40.4204 84.4918 40.4204 84.63 40.4204H84.2352Z" stroke="#DEEDF2" stroke-width="2.76986"/>
<path d="M294.39 148.438C306.587 140.248 321.291 135.472 337.1 135.472C362.817 135.472 385.573 148.103 399.526 167.504" stroke="#DEEDF2" stroke-width="2.76986" stroke-dasharray="5 5"/>
<path d="M399.763 167.839C399.842 167.958 399.921 168.076 400 168.175" stroke="#DEEDF2" stroke-width="2.76986"/>
<path d="M168.964 94.5182H205.575C244.555 94.5182 280.574 115.301 300.054 149.05H336.014L365.678 200.444H327.705C309.508 200.444 292.692 190.734 283.614 174.984C281.995 172.181 278.995 170.445 275.758 170.445H242.206C224.009 170.445 207.213 160.754 198.115 145.004L168.964 94.5182Z" fill="#DEEDF2"/>
<path d="M282.193 163.083L282.094 164.978L280.515 194.109H278.561L277.16 168.353L276.884 163.083H282.193Z" fill="white"/>
<path d="M291.587 162.609H202.102L208.931 155.445H284.758L291.587 162.609Z" fill="white"/>
<path d="M202.102 164.287H291.587V162.609H202.102V164.287Z" fill="#7B8BAF"/>
<path d="M282.193 163.083L282.094 164.978L277.16 168.353L276.884 163.083H282.193Z" fill="#7B8BAF"/>
<path d="M277.811 143.721L279.884 140.09C283.219 134.327 289.377 130.774 296.048 130.774H303.548V213.293" stroke="#C3DEE7" stroke-width="3.61319"/>
<path d="M293.107 148.873H264.706C267.469 143.86 272.798 140.465 278.916 140.465C285.035 140.465 290.364 143.86 293.107 148.873Z" fill="#9BC3D3"/>
<path d="M321.685 215.839H236.088L264.667 148.873H293.107L321.685 215.839Z" fill="white" fill-opacity="0.3"/>
<path d="M255.371 152.405C255.371 170.997 247.476 187.734 234.864 199.457C229.93 204.056 224.286 207.885 218.088 210.747C211.299 213.905 203.858 215.898 196.043 216.49C194.405 216.628 192.747 216.687 191.089 216.687C190.003 216.687 188.938 216.668 187.891 216.608C182.128 216.332 176.582 215.286 171.333 213.589C145.497 205.26 126.807 181.023 126.807 152.405C126.807 116.899 155.583 88.1236 191.089 88.1236C226.378 88.1236 255.015 116.564 255.351 151.774C255.371 151.991 255.371 152.188 255.371 152.405Z" fill="#DEEDF2"/>
<path d="M237.726 23.9602L221.345 52.3413L221.167 52.6571L201.885 86.0513H164.188L147.748 114.511L126.116 151.971H0L35.2297 90.9657C46.2229 71.9199 66.5318 60.1964 88.5183 60.1964H129.057C131.011 60.1964 132.906 59.6833 134.544 58.7359C136.182 57.7886 137.564 56.4268 138.55 54.7294C149.544 35.6837 169.853 23.9602 191.819 23.9602H237.726Z" fill="#DEEDF2"/>
<path d="M96.8074 107.465C77.6432 107.465 62.1105 91.9327 62.1105 72.7686V45.9269C62.1105 26.7627 77.6432 11.2301 96.8074 11.2301H97.4587C116.623 11.2301 132.155 26.7627 132.155 45.9269V72.7686C132.155 91.9327 116.623 107.465 97.4587 107.465H96.8074Z" fill="white"/>
<path d="M97.9323 103.913C78.7682 103.913 63.2355 88.3801 63.2355 69.2159V42.3743C63.2355 23.2101 78.7682 7.67749 97.9323 7.67749H98.5639C117.748 7.67749 133.28 23.2101 133.28 42.3743V69.2159C133.28 88.3801 117.748 103.913 98.5639 103.913H97.9323Z" fill="#DEEDF2"/>
<path d="M98.564 94.8143H97.9324C83.7813 94.8143 72.3144 83.3474 72.3144 69.216V42.3743C72.3144 28.243 83.7813 16.7761 97.9324 16.7761H98.564C112.715 16.7761 124.182 28.243 124.182 42.3743V69.216C124.182 83.3474 112.715 94.8143 98.564 94.8143Z" fill="#C3DEE7"/>
<path d="M68.2487 96.8866H130.044V39.4533H68.2487V96.8866Z" fill="#9BC3D3"/>
<path d="M93.8075 55.7952V57.1175L104.623 54.3347L103.143 52.3018L93.8075 55.7952Z" fill="white"/>
<path d="M108.847 57.1175H93.8075L104.623 54.3347L103.143 52.3018L108.847 57.1175Z" fill="#7B8BAF"/>
<path d="M115.301 62.7425L98.5443 64.2819L112.301 58.0846L115.301 62.7425Z" fill="white"/>
<path d="M131.938 82.7158L107.801 81.058V78.7882L132.254 74.2686L131.938 82.7158Z" fill="#7B8BAF"/>
<path d="M120.965 73.2028L132.156 76.1238L107.801 81.0579V78.7882L120.965 73.2028Z" fill="white"/>
<path d="M130.044 75.4725L107.801 78.7882C107.801 78.7882 124.36 71.7423 124.912 71.5252L130.044 75.4725Z" fill="white"/>
<path d="M119.978 67.1634L99.3337 66.67L111.511 63.0385L116.347 62.5648L119.978 67.1634Z" fill="#7B8BAF"/>
<path d="M95.1494 48.9071C95.1494 49.5782 91.4982 50.1308 86.9982 50.1308C82.4786 50.1308 78.8273 49.5782 78.8273 48.9071C78.8273 48.2361 82.4786 47.7032 86.9982 47.7032C91.4982 47.7032 95.1494 48.2361 95.1494 48.9071Z" fill="#C3DEE7"/>
<path d="M89.6628 64.124C89.6628 67.8345 80.8208 70.8344 69.9262 70.8344C59.0119 70.8344 50.17 67.8345 50.17 64.124C50.17 60.4135 59.0119 57.3938 69.9262 57.3938C80.8208 57.3938 89.6628 60.4135 89.6628 64.124Z" fill="#C3DEE7"/>
<path d="M127.656 49.7755L103.853 45.2361H94.3008L124.715 77.1304L127.656 49.7755Z" fill="white"/>
<path d="M124.912 56.3084L106.281 48.3348L125.248 57.5123L124.912 56.3084Z" fill="#9BC3D3"/>
<path d="M132.155 76.1238L133.537 50.5058L127.655 49.7755L123.787 51.7295L125.938 55.4597L125.248 64.0253L124.912 71.5252L127.932 75.512L132.155 76.1238Z" fill="white"/>
<path d="M105.294 51.2163C105.531 51.2952 126.314 65.2095 126.314 65.2095L124.912 66.0779L105.294 51.2163Z" fill="#9BC3D3"/>
<path d="M99.3336 66.67L112.044 62.8609L98.5441 64.2819L99.3336 66.67Z" fill="white"/>
<path d="M253.476 146.978C253.476 165.57 245.581 182.306 232.97 194.05C228.055 198.628 222.391 202.457 216.213 205.319C209.424 208.477 201.983 210.47 194.148 211.082C192.51 211.201 190.852 211.26 189.194 211.26C188.128 211.26 187.063 211.24 185.997 211.181C180.254 210.905 174.688 209.859 169.438 208.161C143.603 199.832 124.912 175.596 124.912 146.978C124.912 111.472 153.688 82.6961 189.194 82.6961C224.483 82.6961 253.14 111.136 253.476 146.346C253.476 146.563 253.476 146.761 253.476 146.978Z" fill="white"/>
<path d="M167.149 179.188L161.267 189.352C160.695 190.359 159.392 190.714 158.366 190.122L140.504 179.819C139.498 179.227 139.142 177.925 139.735 176.898L145.596 166.754C146.188 165.728 147.491 165.372 148.517 165.964L166.359 176.267C167.385 176.859 167.741 178.162 167.149 179.188Z" fill="#C3DEE7"/>
<path d="M167.563 176.839L161.681 187.004C161.109 188.03 159.806 188.366 158.78 187.773L140.918 177.471C139.912 176.879 139.557 175.576 140.149 174.57L146.01 164.405C146.602 163.379 147.905 163.044 148.931 163.616L166.773 173.938C167.8 174.51 168.135 175.813 167.563 176.839Z" fill="#DEEDF2"/>
<path d="M147.688 164.168L166.932 175.26L160.596 186.214L141.373 175.122L147.688 164.168Z" fill="white"/>
<path d="M153.688 173.307L162.313 178.28L159.471 183.195L150.846 178.201L153.688 173.307Z" fill="#DEEDF2"/>
<path d="M152.721 170.01C152.721 171.293 151.675 172.339 150.372 172.339C149.09 172.339 148.043 171.293 148.043 170.01C148.043 168.708 149.09 167.662 150.372 167.662C151.675 167.662 152.721 168.708 152.721 170.01Z" fill="#DEEDF2"/>
<path d="M170.78 180.55L174.431 194.74L191.108 190.458L187.477 176.267L170.78 180.55Z" fill="#DEEDF2"/>
<path d="M169.576 183.708L173.208 197.918L189.905 193.635L186.253 179.445L169.576 183.708Z" fill="#C3DEE7"/>
<path d="M108.314 123.847H113.366V118.794H108.314V123.847Z" fill="white"/>
<path d="M320.679 96.2944L298.929 58.6372C290.304 43.6966 275.127 33.5718 257.976 31.7955C257.542 31.7363 257.108 31.6968 256.673 31.6574L249.529 31.0653L234.035 35.131L227.779 40.1046C223.042 43.8545 220.792 49.9334 221.917 55.8543C222.924 61.124 224.799 66.1765 227.483 70.8343L242.917 97.5576L246.785 98.7023L247.496 89.7814L249.529 96.2944H320.679Z" fill="#EB1D23"/>
<path d="M315.054 47.5453C314.541 47.5848 314.008 47.6835 313.495 47.8216C309.251 49.0058 306.784 53.3676 307.949 57.6109C308.758 60.5912 311.166 62.703 313.968 63.3148C314.699 63.4529 315.33 63.8477 315.804 64.4003C317.797 66.7489 321.073 67.8345 324.231 66.8674C328.376 65.5845 330.764 61.1832 329.56 57.0188C329.54 56.9794 329.54 56.9399 329.521 56.8807C329.106 55.5583 329.6 54.0978 330.705 53.2492C333.231 51.315 334.435 47.9598 333.507 44.723C332.284 40.4994 327.863 38.052 323.639 39.256C320.797 40.0849 318.745 42.3349 318.093 45.019C317.738 46.4401 316.514 47.4466 315.054 47.5453Z" fill="#C3DEE7"/>
<path d="M327.33 57.1965C326.857 56.9596 326.343 56.782 325.83 56.6636C321.547 55.5781 317.245 58.1438 316.159 62.4069C315.39 65.3872 316.416 68.4069 318.567 70.341C319.1 70.8147 319.475 71.466 319.613 72.1963C320.166 75.216 322.475 77.7817 325.692 78.512C329.936 79.479 334.179 76.8344 335.205 72.6107C335.225 72.5713 335.225 72.5318 335.245 72.4726C335.541 71.1108 336.685 70.1042 338.067 69.9068C341.225 69.4726 343.949 67.1634 344.738 63.8872C345.784 59.6241 343.139 55.3018 338.876 54.2557C336.014 53.5452 333.113 54.5123 331.218 56.5057C330.212 57.5517 328.633 57.8281 327.33 57.1965Z" fill="#9BC3D3"/>
<path d="M344.738 63.8872C343.949 67.1634 341.225 69.4726 338.067 69.9068C336.685 70.1042 335.541 71.1108 335.245 72.4726C335.225 72.5121 335.225 72.5713 335.205 72.6107C334.889 73.9133 334.278 75.0581 333.429 76.0054C333.074 76.4002 332.699 76.7554 332.284 77.0712C330.488 78.433 328.159 79.0251 325.811 78.5317C325.771 78.5317 325.732 78.512 325.692 78.512C322.574 77.8014 320.304 75.3541 319.653 72.4331C319.633 72.3542 319.613 72.2752 319.613 72.1963C319.475 71.466 319.1 70.8147 318.567 70.341C316.416 68.4069 315.39 65.3872 316.159 62.4069C317.245 58.1438 321.547 55.5781 325.83 56.6636C326.343 56.782 326.857 56.9596 327.33 57.1965C328.633 57.8281 330.212 57.5517 331.218 56.5057C333.113 54.5123 336.014 53.5452 338.876 54.2557C343.139 55.3018 345.784 59.6241 344.738 63.8872Z" fill="#C3DEE7"/>
<path d="M335.086 76.4396L332.284 77.0711L325.81 78.5316C325.771 78.5316 325.731 78.5119 325.692 78.5119C322.573 77.8014 320.304 75.354 319.652 72.433L333.429 76.0054L335.086 76.4396Z" fill="#9BC3D3"/>
<path d="M317.442 76.0251L323.186 96.2945H331.593L337.337 76.0251H317.442Z" fill="#DEEDF2"/>
<path d="M206.088 67.4397L204.806 67.0845H204.786L204.746 67.0647C204.727 67.045 204.687 67.0253 204.667 67.0055L200.345 64.6569C199.793 64.3608 199.536 63.6898 199.753 63.0977C199.95 62.5451 200.464 62.2096 201.016 62.2096C201.135 62.2096 201.273 62.2293 201.391 62.2688L202.832 62.6832L204.135 63.078L205.812 63.5714L206.088 67.4397Z" fill="#FFC4B8"/>
<path d="M192.727 115.36H336.172V95.3472H192.727V115.36Z" fill="#DEEDF2"/>
<path d="M188.523 102.354C188.523 101.387 201.056 100.617 216.51 100.617C231.963 100.617 244.476 101.387 244.476 102.354C244.476 103.321 231.963 104.09 216.51 104.09C201.056 104.09 188.523 103.321 188.523 102.354Z" fill="#9BC3D3"/>
<path d="M352.613 102.255H300.153L293.798 109.459V110.643H346.258L352.613 103.439V102.255Z" fill="#C3DEE7"/>
<path d="M241.516 49.6966C241.339 49.1834 241.122 48.69 240.964 48.2163C240.845 47.9006 240.727 47.6045 240.628 47.2887C239.523 44.1309 238.891 41.7033 238.891 41.7033L245.641 31.1443L246.825 29.2495L246.983 29.0324L247.141 28.7759L248.917 25.9733L249.529 25.0062C249.529 25.0062 249.648 25.3615 249.845 25.9535C250.042 26.4864 250.358 27.2562 250.753 28.0851C251.227 29.0719 251.839 30.1574 252.588 31.164C255.371 34.8547 256.891 39.2757 257.542 43.8348C259.713 59.2491 244.615 59.0912 241.516 49.6966Z" fill="#FFC4B8"/>
<path d="M347.402 107.998H294.943L301.298 100.794H353.758L347.402 107.998Z" fill="white"/>
<path d="M251.976 15.8287C251.976 24.572 244.89 31.6574 236.147 31.6574C232.772 31.6574 229.654 30.6114 227.088 28.8153L231.904 28.1443L230.068 19.9931L229.496 17.4668L223.397 18.8681L220.733 19.48C220.634 19.105 220.575 18.73 220.516 18.3352C220.476 18.1576 220.457 17.9602 220.417 17.7629C220.338 17.1313 220.299 16.48 220.299 15.8287C220.299 7.08542 227.404 0 236.147 0C238.989 0 241.654 0.749993 243.943 2.0526C247.239 3.90784 249.805 6.92753 251.068 10.5393C251.66 12.1972 251.976 13.9735 251.976 15.8287Z" fill="#A44271"/>
<path d="M249.845 25.9536L243.884 39.3547C242.522 42.8086 238.358 44.1901 235.18 42.2559C233.858 41.4467 232.615 40.5586 231.569 39.7297L228.944 37.6376C228.134 36.9863 227.404 36.2363 226.812 35.4074C225.865 34.1047 225.194 32.6048 224.878 30.9864L223.062 21.9865C222.707 20.2102 223.299 18.3945 224.641 17.1708C227.74 14.3682 231.825 12.9274 235.99 13.1643L242.345 13.5393L247.95 22.4602L248.364 21.5128C248.799 21.5128 249.845 25.9536 249.845 25.9536Z" fill="#FFC4B8"/>
<path d="M223.319 23.3286L225.865 23.0128L231.904 34.6771L225.49 35.5455L223.319 23.3286Z" fill="#FFC4B8"/>
<path d="M233.917 83.8211C236.858 82.1237 241.654 84.9066 244.634 90.0381C247.594 95.1696 247.594 100.716 244.654 102.413C241.693 104.11 236.897 101.347 233.937 96.2156C230.976 91.0644 230.956 85.5381 233.917 83.8211Z" fill="#FFC4B8"/>
<path d="M234.45 97.0642L219.805 75.4528L223.437 68.9989L242.226 86.7618L234.45 97.0642Z" fill="#FFC4B8"/>
<path d="M291.903 60.9267L312.982 97.834L322.554 98.0708L333.567 99.9458C334.179 100.044 334.594 100.617 334.495 101.209C334.416 101.801 333.883 102.215 333.291 102.176L326.363 101.584L319.436 102.788C319.238 102.788 319.219 103.044 319.416 103.084L324.35 103.794C324.666 103.834 324.962 103.972 325.179 104.189C325.396 104.426 325.534 104.722 325.574 105.038C325.633 105.827 325.041 106.498 324.252 106.538C321.429 106.636 316.89 106.636 313.752 106.459C309.647 106.242 307.219 102.906 307.219 102.906L307.239 102.887L277.081 64.0056L291.903 60.9267Z" fill="#FFC4B8"/>
<path d="M223.931 67.4989C223.082 66.1963 221.681 65.3674 220.141 65.2292L217.437 64.9924L216.687 63.5319L217.201 63.7687C217.576 63.9464 218.029 63.8279 218.266 63.4727L218.326 63.4135C218.602 62.999 218.483 62.4266 218.069 62.1701L216.766 61.3806L217.556 60.6504C217.812 60.4333 217.872 60.0583 217.694 59.7622C217.556 59.5451 217.319 59.407 217.082 59.407C217.003 59.407 216.924 59.4267 216.845 59.4464L214.793 60.1372L212.089 60.8675C211.635 60.9859 211.299 61.3806 211.24 61.8345L210.668 65.6832V61.6964C210.687 61.5385 210.707 61.4003 210.786 61.2622L212.898 56.3675C213.155 55.7755 212.819 55.1044 212.187 54.9662C211.734 54.8676 211.26 55.1044 211.043 55.5189L207.826 61.4201C207.727 61.578 207.668 61.7753 207.648 61.9727L207.451 65.4858L206.72 61.9727C206.681 61.7951 206.681 61.6174 206.72 61.4398L208.023 55.736C208.161 55.1834 207.786 54.6307 207.214 54.5518C206.74 54.4728 206.306 54.7492 206.148 55.2031L204.47 60.1964L204.036 61.499C203.957 61.6964 203.938 61.8938 203.977 62.1109L204.135 63.078L204.806 67.0845L205.023 68.466L205.398 70.6962C205.497 71.2883 205.931 71.762 206.503 71.9199L219.806 75.4527L227.404 72.7686L223.931 67.4989Z" fill="#FFC4B8"/>
<path d="M249.134 20.0128C249.134 17.8417 248.108 16.0655 246.865 16.0655C245.621 16.0655 244.615 17.8417 244.615 20.0128C244.615 22.1838 245.621 23.9403 246.865 23.9403C248.108 23.9403 249.134 22.1838 249.134 20.0128Z" fill="#FFC4B8"/>
<path d="M226.753 23.0127L227.621 16.0655L229.398 23.0127H226.753Z" fill="#FFC4B8"/>
<path d="M255.884 7.57884C255.884 10.9143 253.18 13.6182 249.844 13.6182C246.509 13.6182 243.805 10.9143 243.805 7.57884C243.805 4.24337 246.509 1.53946 249.844 1.53946C253.18 1.53946 255.884 4.24337 255.884 7.57884Z" fill="#A44271"/>
<path d="M251.383 12.2761C246.607 18.0589 239.403 21.7299 231.311 21.7299C231.015 21.7299 230.7 21.7299 230.384 21.7102C229.93 21.7102 229.476 21.6707 229.042 21.6313L227.601 16.0656L226.95 21.3747C225.844 21.1773 224.759 20.9207 223.713 20.605C222.687 20.2892 221.7 19.9142 220.733 19.48C220.654 18.8484 220.614 18.2168 220.614 17.5458C220.614 8.80252 227.7 1.7171 236.463 1.7171C239.285 1.7171 241.949 2.46709 244.259 3.7697C247.555 5.64467 250.101 8.66436 251.383 12.2761Z" fill="#A44271"/>
<path d="M286.811 47.8808L293.798 60.8872L275.068 69.1963L263.759 52.4597L274.653 44.9401C278.778 42.098 284.443 43.4796 286.811 47.8808Z" fill="#EB1D23"/>
<path d="M278.64 20.9997C278.64 22.3812 277.515 23.5062 276.133 23.5062C274.732 23.5062 273.607 22.3812 273.607 20.9997C273.607 19.5984 274.732 18.4734 276.133 18.4734C277.515 18.4734 278.64 19.5984 278.64 20.9997Z" fill="#4FD0D0"/>
<path d="M29.1111 168.037C29.1111 169.182 28.1835 170.109 27.0586 170.109C25.9139 170.109 24.9863 169.182 24.9863 168.037C24.9863 166.912 25.9139 165.984 27.0586 165.984C28.1835 165.984 29.1111 166.912 29.1111 168.037Z" fill="#DEEDF2"/>
<path d="M120.925 194.03C120.925 195.155 120.018 196.082 118.873 196.082C117.728 196.082 116.801 195.155 116.801 194.03C116.801 192.885 117.728 191.957 118.873 191.957C120.018 191.957 120.925 192.885 120.925 194.03Z" fill="#FFCC33"/>
<path d="M387.25 128.426C387.25 129.57 386.323 130.498 385.178 130.498C384.033 130.498 383.106 129.57 383.106 128.426C383.106 127.281 384.033 126.353 385.178 126.353C386.323 126.353 387.25 127.281 387.25 128.426Z" fill="#DEEDF2"/>
<path d="M217.22 219.589C221.858 217.832 226.141 215.385 230.029 212.266L232.694 217.773C228.687 221.069 224.266 223.654 219.431 225.47C212.977 227.898 206.148 228.806 199.082 228.332L197.484 222.49C204.332 222.865 210.944 221.937 217.22 219.589Z" fill="#2E4369"/>
<path d="M189.865 149.84L194.74 168.846L217.082 163.122L212.207 144.116L189.865 149.84Z" fill="#DEEDF2"/>
<path d="M208.852 167.484L205.26 161.326C205.082 161.03 204.806 160.794 204.49 160.655L201.45 159.432C200.681 159.136 199.812 159.471 199.457 160.221L196.793 165.826C196.556 166.339 196.714 166.971 197.187 167.307C197.325 167.405 197.483 167.464 197.641 167.504C198.115 167.603 198.628 167.405 198.904 166.971L199.496 166.024L201.944 168.787C202.931 169.912 204.135 170.78 205.496 171.372L209.088 172.932L211.694 170.82L208.852 167.484Z" fill="#C3DEE7"/>
<path d="M211.812 170.168L207.056 173.464L219.667 200.503C219.667 200.503 234.49 188.148 234.549 187.872C234.588 187.596 211.812 170.168 211.812 170.168Z" fill="#C3DEE7"/>
<path d="M180.372 186.648L179.839 181.912L177.865 178.695C177.431 177.964 177.115 177.175 176.918 176.346L176.109 172.793C176.109 172.734 176.128 172.695 176.168 172.675C176.484 172.478 176.878 172.576 177.076 172.892L179.069 176.149L179.582 170.07C179.642 169.359 180.135 168.728 180.826 168.491C181.023 168.432 181.319 168.333 181.615 168.254C182.306 168.037 183.056 168.372 183.352 169.043C183.352 169.043 186.727 177.787 185.543 181.714L185.286 182.444L185.128 188.306L180.372 186.648Z" fill="#F4A48D"/>
<path d="M237.983 205.082C236.581 207.056 234.924 209.188 233.068 211.299C224.187 221.365 210.648 225.569 197.878 222.885C197.799 222.865 197.7 222.845 197.621 222.826C196.595 222.608 195.569 222.352 194.543 222.036C193.161 221.602 191.957 220.832 191.01 219.806C190.062 218.799 189.372 217.536 189.036 216.135C189.016 216.135 189.016 216.115 188.997 216.115C188.385 216.036 178.576 214.655 178.576 205.26L179.247 182.287L185.977 181.892L187.891 199.536C188.069 201.096 189.628 202.102 191.108 201.589L209.562 195.392L222.371 190.655L233.877 186.392C233.877 186.392 244.989 195.293 237.983 205.082Z" fill="#9BC3D3"/>
<path d="M197.621 222.825C196.595 222.608 195.569 222.352 194.543 222.036C193.161 221.602 191.957 220.832 191.01 219.806C190.062 218.799 189.372 217.536 189.036 216.135C192.47 216.431 195.707 215.345 195.707 215.345L197.621 222.825Z" fill="#2E4369"/>
<path d="M201.589 159.372L202.654 157.675L203.444 157.932L203.582 159.333L201.589 159.372ZM209.898 164.03L206.799 157.596C206.641 157.3 206.404 157.044 206.088 156.886L203.148 155.425C202.398 155.05 201.51 155.326 201.095 156.037L198.016 161.425C197.72 161.918 197.839 162.55 198.273 162.925C198.411 163.043 198.569 163.122 198.727 163.162C199.181 163.3 199.694 163.142 200.01 162.728L200.681 161.82L202.891 164.78C203.799 165.964 204.924 166.951 206.246 167.642L209.681 169.497L212.463 167.583L209.898 164.03Z" fill="#F4A48D"/>
<path d="M226.161 197.405C224.897 200.582 220.24 202.438 215.74 201.549C211.812 200.78 209.306 198.175 209.562 195.392L218.009 192.273L222.391 190.655C225.549 192.017 227.207 194.74 226.161 197.405Z" fill="#F4A48D"/>
<path d="M212.641 166.932L207.628 169.853L218.049 197.799C218.049 197.799 233.819 186.668 233.878 186.412C233.937 186.135 212.641 166.932 212.641 166.932Z" fill="#9BC3D3"/>
<path d="M211.694 186.885L211.24 183.412L210.095 182.484C208.891 181.517 208.812 179.701 209.957 178.675C212.917 176.01 217.753 174.846 221.384 175.655C222.351 175.872 223.24 176.227 223.99 176.741C224.444 177.056 224.74 177.431 224.917 177.846L211.694 186.885Z" fill="#EB1D23"/>
<path d="M199.931 159.432L197.325 159.767L197.365 160.261L199.042 160.517L208.457 160.241C208.457 160.241 208.358 159.215 208.22 159.215C208.101 159.215 199.931 159.432 199.931 159.432Z" fill="#FFCC33"/>
<path d="M203.641 163.063L199.911 161.366C199.339 161.09 199.122 160.379 199.457 159.846C199.733 159.432 200.247 159.254 200.72 159.412L204.885 160.912L203.641 163.063Z" fill="#F4A48D"/>
<path d="M230.858 190.477C229.16 196.556 222.865 200.109 216.786 198.392C216.47 198.313 216.154 198.214 215.838 198.096C215.227 197.859 214.615 197.582 214.062 197.247C213.806 197.089 213.549 196.931 213.312 196.773V196.753C213.036 196.576 212.76 196.359 212.503 196.142C212.404 196.063 212.325 195.984 212.246 195.924C211.062 194.859 210.095 193.556 209.444 192.115C209.365 191.938 209.286 191.74 209.227 191.563C209.148 191.405 209.089 191.227 209.029 191.05C208.95 190.813 208.891 190.576 208.812 190.339C208.714 189.905 208.615 189.471 208.556 189.017C208.536 188.958 208.536 188.898 208.516 188.839C208.477 188.504 208.457 188.168 208.437 187.833C208.437 187.576 208.437 187.319 208.437 187.063C208.437 186.846 208.457 186.629 208.477 186.431C208.536 185.74 208.654 185.03 208.852 184.319C210.549 178.241 216.865 174.688 222.944 176.405C229.003 178.102 232.555 184.398 230.858 190.477Z" fill="#F4A48D"/>
<path d="M231.272 187.833C231.253 188.721 231.115 189.589 230.858 190.477C230.483 191.819 229.871 193.043 229.101 194.128C224.286 200.74 214.003 199.615 210.668 192.135C210.47 191.721 210.391 191.484 210.391 191.484V191.464L209.977 189.471L209.227 191.563C209.148 191.405 209.089 191.227 209.029 191.05C208.95 190.813 208.891 190.576 208.812 190.339C208.733 190.004 208.654 189.688 208.595 189.352C208.575 189.234 208.575 189.135 208.556 189.036C208.536 188.957 208.536 188.898 208.516 188.839C208.477 188.504 208.457 188.168 208.437 187.833C208.437 187.773 208.437 187.694 208.437 187.635C208.437 187.438 208.437 187.24 208.437 187.063C208.437 186.846 208.457 186.629 208.477 186.431C208.516 185.918 208.595 185.405 208.714 184.872C208.753 184.694 208.812 184.517 208.852 184.319C209.069 183.569 209.345 182.879 209.681 182.208C212.108 177.451 217.615 174.905 222.944 176.405C228.134 177.846 231.49 182.681 231.272 187.833Z" fill="#EB1D23"/>
<path d="M210.687 190.931C210.608 191.129 210.51 191.306 210.391 191.464V191.484C210.371 191.504 210.352 191.543 210.332 191.563C210.312 191.583 210.292 191.602 210.292 191.622C210.233 191.681 210.194 191.721 210.154 191.78C210.135 191.78 210.115 191.8 210.095 191.819C209.917 191.997 209.72 192.135 209.503 192.234C209.483 192.194 209.464 192.155 209.444 192.115C209.365 191.938 209.286 191.74 209.227 191.563C209.148 191.405 209.089 191.227 209.029 191.05C208.95 190.813 208.891 190.576 208.812 190.339C208.714 189.905 208.615 189.471 208.556 189.017C208.536 188.958 208.536 188.898 208.516 188.839C208.477 188.504 208.457 188.168 208.437 187.833C208.437 187.773 208.437 187.694 208.437 187.635C208.891 187.458 209.404 187.477 209.858 187.714C210.845 188.267 211.22 189.708 210.687 190.931Z" fill="#F4A48D"/>
<path d="M185.602 179.563L181.813 181.102C181.379 181.28 180.905 181.063 180.727 180.648L176.603 170.524C176.445 170.089 176.642 169.616 177.056 169.438L180.866 167.899C181.28 167.721 181.773 167.918 181.931 168.353L186.056 178.477C186.234 178.892 186.037 179.385 185.602 179.563Z" fill="#DEEDF2"/>
<path d="M195.49 163.063L203.109 149.859" stroke="#39C9C2" stroke-width="1.38417"/>
<path d="M82.834 147.787L59.4857 147.708L59.5252 137.366L82.8735 137.445L82.834 147.787Z" fill="#DEEDF2"/>
<path d="M67.9527 146.05C67.7356 145.833 67.3606 145.971 67.3212 146.267C67.2422 146.741 67.1633 147.373 67.0843 147.925L66.7488 144.057C66.7291 143.8 66.6106 143.583 66.4133 143.406L65.7225 142.814C65.2093 142.36 64.3804 142.577 64.1633 143.248L62.9396 146.958C62.7225 147.59 62.7028 148.261 62.841 148.892L63.4528 151.498L63.6502 151.952L64.0449 155.741L67.0448 154.419L67.1041 152.484L68.0317 149.682C68.0514 149.603 68.0514 149.544 68.0514 149.465V146.327C68.0514 146.228 68.0119 146.129 67.9527 146.05Z" fill="#F4A48D"/>
<path d="M96.9259 137.722V140.406C96.9259 142.202 95.4654 143.662 93.6496 143.662C91.8339 143.662 90.3734 142.202 90.3734 140.406V137.722C90.3734 135.906 91.8339 134.445 93.6496 134.445C95.4654 134.445 96.9259 135.906 96.9259 137.722Z" fill="#2E4369"/>
<path d="M96.2546 146.208L94.202 149.761L91.7744 148.932L91.4389 141.787C91.3994 141.057 91.5573 140.346 91.8928 139.695L92.6231 138.235C93.0178 137.445 94.1033 137.347 94.6559 138.037L96.3533 140.169C96.5309 140.406 96.6296 140.702 96.6098 141.018L96.2546 146.208Z" fill="#F4A48D"/>
<path d="M82.3998 124.537L80.7419 128.426H76.4788L74.821 124.537H82.3998Z" fill="#9BC3D3"/>
<path d="M103.044 129.61V129.63H54.1766V129.61C54.1766 128.307 55.2424 127.241 56.545 127.222H100.636C101.959 127.222 103.044 128.287 103.044 129.61Z" fill="white"/>
<path d="M66.0186 115.873C66.0186 116.978 61.8542 117.867 56.7029 117.867C51.5517 117.867 47.3873 116.978 47.3873 115.873C47.3873 114.788 51.5517 113.88 56.7029 113.88C61.8542 113.88 66.0186 114.788 66.0186 115.873Z" fill="#9BC3D3"/>
<path d="M61.6369 107.505C60.7882 109.143 59.2882 110.15 57.9461 110.169C57.5317 110.169 57.1369 110.071 56.7817 109.873C56.6041 109.794 56.4659 109.696 56.3278 109.577C55.1436 108.571 54.9462 106.439 55.933 104.525C56.6435 103.143 57.7883 102.215 58.9527 101.959C59.5843 101.801 60.2356 101.84 60.808 102.137C62.2487 102.906 62.6829 105.018 61.854 107.011C61.7948 107.189 61.7158 107.347 61.6369 107.505ZM61.6961 100.419C60.9264 100.025 60.058 99.926 59.1698 100.104C57.4527 100.459 55.7357 101.821 54.6699 103.854C53.0712 106.952 53.6041 110.406 55.8738 111.61C56.0317 111.689 56.1699 111.748 56.3278 111.788C56.762 111.946 57.2356 112.024 57.7093 112.005C59.6238 111.926 61.6961 110.485 62.9 108.156C63.0974 107.781 63.2553 107.406 63.3934 107.011C64.3408 104.268 63.6895 101.465 61.6961 100.419Z" fill="#C3DEE7"/>
<path d="M59.5644 96.8077C59.5644 96.8209 59.5644 96.834 59.5644 96.8472L59.1697 100.104L58.9526 101.959L58.321 107.011L57.946 110.169L57.7092 112.005L57.6105 112.932C57.4724 113.998 57.0184 114.946 56.3277 115.676C55.4395 116.623 54.1566 117.215 52.7751 117.215H50.5646C48.3146 117.215 46.3804 115.696 45.8476 113.544C45.7883 113.386 45.7686 113.209 45.7291 113.031L44.0318 100.893L43.4594 96.8472C43.4463 96.834 43.4397 96.8209 43.4397 96.8077H59.5644Z" fill="#C3DEE7"/>
<path d="M59.5644 96.8077C59.5644 96.8209 59.5644 96.834 59.5644 96.8472L59.1696 100.104L58.9525 101.959L58.321 107.011L57.946 110.169L57.7091 112.005L57.6105 112.932C57.4723 113.998 57.0184 114.946 56.3276 115.676C55.4394 116.623 54.1566 117.215 52.775 117.215H51.5908C52.1434 116.959 52.6566 116.584 53.0711 116.13C53.7618 115.399 54.2158 114.452 54.3539 113.406L54.4723 112.459L54.6894 110.623L55.0842 107.485L55.696 102.413L55.9131 100.577L56.3276 97.3011V97.2814L59.5644 96.8077Z" fill="white"/>
<path d="M59.5644 96.8076C59.5644 97.0444 58.7355 97.2615 57.3934 97.4194C55.9132 97.5971 53.8211 97.7155 51.5119 97.7155C49.2028 97.7155 47.1107 97.5971 45.6304 97.4194C44.2686 97.2615 43.4397 97.0444 43.4397 96.8076C43.4397 96.3142 47.0515 95.9195 51.5119 95.9195C55.9527 95.9195 59.5644 96.3142 59.5644 96.8076Z" fill="#A44271"/>
<path d="M65.9002 67.3804L56.2885 80.1697C54.2951 82.8144 53.328 86.1104 53.5451 89.4064L53.999 95.9589L54.1175 97.6562C53.2885 97.6957 52.4201 97.7155 51.5122 97.7155C50.9399 97.7155 50.3872 97.6957 49.8544 97.6957L49.0649 95.9589L43.8544 84.5907C41.2887 78.9855 42.7492 72.3343 47.4268 68.3278C50.5846 65.6239 52.2622 61.7555 52.2622 57.8082C52.2622 55.6372 51.7491 53.4465 50.703 51.4136L41.4466 33.6705C40.4005 31.6771 41.2887 29.2298 43.361 28.3416C43.8544 28.1245 44.3676 28.0258 44.8807 28.0258C45.986 28.0258 47.0715 28.5193 47.8215 29.3877L65.387 50.1307C69.5712 55.0451 69.7883 62.2095 65.9002 67.3804Z" fill="white"/>
<path d="M70.7355 71.4659L59.7818 83.1302C57.5121 85.5381 56.17 88.6959 56.0318 92.0116L55.8739 96.0576L55.795 97.5773C54.5516 97.6563 53.0911 97.7155 51.5122 97.7155C51.2556 97.7155 50.999 97.7155 50.7622 97.6957L50.1701 95.9392L46.9333 86.1499C44.9991 80.2882 47.1701 73.8541 52.2819 70.3804C55.6963 68.0318 57.7884 64.3805 58.2226 60.453C58.4594 58.3017 58.2028 56.0715 57.3739 53.9399L50.1306 35.2889C49.3017 33.1968 50.4464 30.8482 52.5977 30.1969C53.1108 30.039 53.6437 29.9798 54.1568 30.039C55.2424 30.1772 56.2687 30.7693 56.92 31.7363L72.1171 54.2557C75.7289 59.624 75.1565 66.7687 70.7355 71.4659Z" fill="white" fill-opacity="0.6"/>
<path d="M91.7351 162.017L91.1628 164.129C89.9589 168.55 86.7615 172.004 82.7155 173.622C82.2813 173.8 81.8274 173.958 81.3734 174.096C80.0314 174.471 78.6104 174.668 77.1498 174.648C73.7552 174.589 70.8539 173.05 68.1895 171.273C66.7092 170.267 65.3276 167.879 65.1895 167.721C63.6106 165.866 63.8474 165.491 63.3935 162.984L63.1172 161.464L63.7487 161.287C66.1171 160.596 68.5052 160.122 70.8934 159.846C71.0118 159.826 71.1499 159.807 71.2684 159.787C75.0183 159.372 78.788 159.432 82.5379 159.965C82.6958 159.984 82.8734 160.004 83.0313 160.043C83.2287 160.063 83.4261 160.103 83.6234 160.122C84.8273 160.339 86.0313 160.576 87.2155 160.872L91.7351 162.017Z" fill="#A44271"/>
<path d="M82.9724 159.846L82.9921 153.037L80.5843 153.096L72.9857 152.938L71.5252 159.767C71.5252 159.767 71.1897 159.787 71.0318 159.826L70.1634 159.925C70.1634 159.925 71.2686 163.537 78.3738 163.339C85.4789 163.122 85.4789 160.122 85.4789 160.122L82.9724 159.846Z" fill="#F4A48D"/>
<path d="M66.0578 161.208L67.5183 152.84L63.3736 152.425L59.6237 160.715C58.3013 165.767 66.0183 168.945 66.0183 168.945L73.0051 164.267L66.0578 161.208Z" fill="#A44271"/>
<path d="M54.1766 129.629L64.9725 132.235H92.2484L103.044 129.629H54.1766Z" fill="#C3DEE7"/>
<path d="M85.0049 146.09C86.5049 150.313 84.2944 154.951 80.0708 156.451C75.8669 157.951 71.2288 155.741 69.7288 151.517C68.2288 147.294 70.4196 142.675 74.6432 141.175C78.8669 139.675 83.5049 141.866 85.0049 146.09Z" fill="#4FD0D0"/>
<path d="M80.4261 140.761C80.4261 140.761 74.8209 144.827 69.7881 143.149C69.7881 143.149 74.0314 138.393 80.4261 140.761Z" fill="#4FD0D0"/>
<path d="M88.834 168.945V172.912C85.6367 175.241 81.6893 176.622 77.4263 176.622C73.1632 176.622 69.2159 175.241 66.0186 172.912V168.945C69.2159 171.293 73.1632 172.655 77.4263 172.655C81.6893 172.655 85.6367 171.293 88.834 168.945Z" fill="#2E4369"/>
<path d="M87.3931 164.267L91.4391 147.471L96.61 147.866L95.4258 158.642C94.4982 164.543 88.8338 168.945 88.8338 168.945L87.3931 164.267Z" fill="#A44271"/>
<path d="M182.701 172.438C182.701 173.583 181.773 174.491 180.628 174.491C179.484 174.491 178.576 173.583 178.576 172.438C178.576 171.293 179.484 170.366 180.628 170.366C181.773 170.366 182.701 171.293 182.701 172.438Z" fill="white"/>
<path d="M184.477 164.326C184.477 164.938 183.984 165.432 183.372 165.432C182.78 165.432 182.286 164.938 182.286 164.326C182.286 163.714 182.78 163.221 183.372 163.221C183.984 163.221 184.477 163.714 184.477 164.326Z" fill="#4FD0D0"/>
<path d="M173.444 152.682H176.266V149.879H173.444V152.682Z" fill="#DEEDF2"/>
<path d="M233.582 137.208H236.404V134.406H233.582V137.208Z" fill="#DEEDF2"/>
<path d="M151.517 144.57C151.122 144.511 150.747 144.491 150.372 144.491C149.997 144.491 149.622 144.511 149.247 144.57C145.063 145.202 142.162 149.109 142.793 153.313C142.813 153.511 142.833 153.728 142.872 153.945C142.892 154.004 142.912 154.063 142.912 154.142C142.951 154.28 142.971 154.419 143.011 154.557C143.03 154.636 143.05 154.715 143.07 154.794C143.109 154.912 143.149 155.03 143.188 155.169C143.208 155.248 143.228 155.326 143.247 155.386C143.307 155.524 143.346 155.642 143.386 155.761C143.425 155.84 143.445 155.899 143.484 155.978C143.524 156.116 143.583 156.254 143.642 156.373C143.701 156.491 143.761 156.59 143.8 156.708C143.859 156.826 143.918 156.945 143.978 157.063C144.037 157.162 144.096 157.261 144.155 157.379C144.195 157.438 144.234 157.517 144.274 157.596C144.333 157.715 144.412 157.813 144.471 157.932C144.511 157.991 144.55 158.05 144.57 158.09C144.649 158.228 144.728 158.366 144.826 158.484C144.826 158.504 144.846 158.524 144.846 158.524C145.774 159.984 146.899 161.386 147.866 162.886C148.892 164.464 149.445 166.3 149.445 168.195V169.418C149.445 169.912 149.839 170.306 150.333 170.306C150.826 170.306 151.241 169.912 151.241 169.418V168.313C151.241 166.438 151.774 164.603 152.78 163.043C154.852 159.826 157.576 157.063 157.971 153.313C158.602 149.109 155.701 145.202 151.517 144.57Z" fill="#4FD0D0"/>
<path d="M150.373 149.761C151.892 149.761 153.116 150.984 153.116 152.504C153.116 154.024 151.892 155.248 150.373 155.248C148.873 155.248 147.629 154.024 147.629 152.504C147.629 150.984 148.873 149.761 150.373 149.761Z" fill="white"/>
<path d="M360.152 135.768L364.987 127.34C364.987 127.34 362.204 126.807 360.922 127.893C360.112 128.564 357.053 132.787 352.455 134.031C350.402 134.583 348.547 134.939 348.547 134.939L356.658 135.787L360.152 135.768Z" fill="#9BC3D3"/>
<path d="M314.403 138.156C314.422 138.274 314.481 138.373 314.58 138.472C315.409 139.399 318.764 139.518 318.764 139.518H345.468C347.737 139.518 350.007 139.281 352.218 138.807L353.777 138.472L361.612 136.814V135.748L348.369 134.623C348.369 134.623 322.494 134.761 320.679 134.86C318.685 134.978 318.113 135.432 316.771 136.083C316.751 136.103 316.731 136.103 316.712 136.123C316.337 136.301 315.981 136.498 315.666 136.695C314.837 137.208 314.304 137.722 314.403 138.156Z" fill="#DEEDF2"/>
<path d="M314.58 138.471C315.409 139.399 318.765 139.517 318.765 139.517H345.468C347.738 139.517 350.007 139.281 352.218 138.807L353.777 138.471H314.58Z" fill="#DEEDF2"/>
<path d="M355.159 136.399L363.468 135.373H364.672L360.369 136.577C359.698 136.774 359.007 136.873 358.316 136.893C357.251 136.932 355.77 136.893 355.159 136.399Z" fill="#9BC3D3"/>
<path d="M353.58 135.787L356.185 135.807L358.395 132.689H357.448L353.58 135.787Z" fill="#DEEDF2"/>
<path d="M335.6 138.018C335.6 138.018 338.185 138.728 340.297 139.182C341.758 139.518 343.297 139.32 344.619 138.629L345.843 137.978C345.843 137.978 354.35 136.695 356.185 135.787L353.6 135.768L335.6 138.018Z" fill="#9BC3D3"/>
<path d="M341.461 139.518L340.198 139.893V139.123L341.461 139.518Z" fill="#C3DEE7"/>
<path d="M340.356 138.945V140.07C340.356 140.07 339.152 140.643 338.185 140.524V138.491C339.152 138.373 340.356 138.945 340.356 138.945Z" fill="#C3DEE7"/>
<path d="M334.811 138.136V140.899C334.811 140.899 334.949 140.919 335.185 140.958C335.975 141.116 337.889 141.393 339.113 140.899V138.136C337.889 137.643 335.975 137.919 335.185 138.057C334.949 138.116 334.811 138.136 334.811 138.136Z" fill="#C3DEE7"/>
<path d="M342.054 154.241V152.169H341.6L340.376 154.241H342.054Z" fill="#C3DEE7"/>
<path d="M342.054 154.241V152.169H341.6L340.376 154.241H342.054Z" fill="#C3DEE7"/>
<path d="M332.007 201.865H342.053V176.149H332.007V201.865Z" fill="#9BC3D3"/>
<path d="M342.053 182.385C334.83 185.208 335.817 192.056 335.817 192.056H348.29C348.29 192.056 349.277 185.208 342.053 182.385Z" fill="#C3DEE7"/>
<path d="M342.053 187.26C342.053 187.26 340.454 187.26 340.454 192.056L342.053 187.26Z" fill="#C3DEE7"/>
<path d="M342.053 197.069C342.053 197.069 340.454 197.069 340.454 201.865L342.053 197.069Z" fill="#C3DEE7"/>
<path d="M314.363 201.865H332.007V181.063H314.363V201.865Z" fill="#C3DEE7"/>
<path d="M320.146 184.3H317.856C316.692 185.662 316.041 187.418 316.041 189.234V192.115H321.961V189.234C321.961 187.418 321.33 185.662 320.146 184.3Z" fill="#DEEDF2"/>
<path d="M318.014 192.629H319.988V189.569H318.014V192.629Z" fill="#C3DEE7"/>
<path d="M328.81 184.3H326.52C325.336 185.662 324.705 187.418 324.705 189.234V192.115H330.626V189.234C330.626 187.418 329.974 185.662 328.81 184.3Z" fill="#DEEDF2"/>
<path d="M326.679 192.629H328.652V189.569H326.679V192.629Z" fill="#C3DEE7"/>
<path d="M320.146 194.03H317.856C316.692 195.392 316.041 197.148 316.041 198.964V201.865H321.961V198.964C321.961 197.148 321.33 195.392 320.146 194.03Z" fill="#DEEDF2"/>
<path d="M318.014 202.359H319.988V199.319H318.014V202.359Z" fill="#C3DEE7"/>
<path d="M328.81 194.03H326.52C325.336 195.392 324.705 197.148 324.705 198.964V201.865H330.626V198.964C330.626 197.148 329.974 195.392 328.81 194.03Z" fill="#DEEDF2"/>
<path d="M326.679 202.359H328.652V199.319H326.679V202.359Z" fill="#C3DEE7"/>
<path d="M314.363 181.063H315.37V178.339H314.363V181.063Z" fill="#C3DEE7"/>
<path d="M327.665 173.563C327.665 173.563 324.981 173.978 324.705 177.53H330.626C330.33 173.978 327.665 173.563 327.665 173.563Z" fill="#C3DEE7"/>
<path d="M327.665 177.53H324.705V181.063H330.626V177.53H327.665Z" fill="#9BC3D3"/>
<path d="M342.054 154.241V152.169H342.508L343.711 154.241H342.054Z" fill="#C3DEE7"/>
<path d="M343.711 154.241H340.376C322.574 164.287 332.008 176.149 332.008 176.149H352.08C352.08 176.149 361.514 164.287 343.711 154.241Z" fill="#C3DEE7"/>
<path d="M352.08 176.149H348.567C348.567 176.149 357.961 164.326 340.277 154.3C340.317 154.28 340.337 154.261 340.376 154.241H343.712C361.514 164.287 352.08 176.149 352.08 176.149Z" fill="#9BC3D3"/>
<path d="M342.054 154.241V152.169H342.508L343.711 154.241H342.054Z" fill="#C3DEE7"/>
<path d="M342.054 201.865H352.08V176.149H342.054V201.865Z" fill="#9BC3D3"/>
<path d="M342.054 187.26C342.054 187.26 343.652 187.26 343.652 192.056L342.054 187.26Z" fill="#C3DEE7"/>
<path d="M342.054 197.069C342.054 197.069 343.652 197.069 343.652 201.865L342.054 197.069Z" fill="#C3DEE7"/>
<path d="M352.08 201.865H369.724V181.063H352.08V201.865Z" fill="#C3DEE7"/>
<path d="M363.941 184.3H366.231C367.415 185.662 368.046 187.418 368.046 189.234V192.115H362.125V189.234C362.125 187.418 362.777 185.662 363.941 184.3Z" fill="#DEEDF2"/>
<path d="M364.099 192.629H366.073V189.569H364.099V192.629Z" fill="#C3DEE7"/>
<path d="M355.296 184.3H357.566C358.75 185.662 359.402 187.418 359.402 189.234V192.115H353.461V189.234C353.461 187.418 354.112 185.662 355.296 184.3Z" fill="#DEEDF2"/>
<path d="M355.435 192.629H357.428V189.569H355.435V192.629Z" fill="#C3DEE7"/>
<path d="M363.941 194.03H366.231C367.415 195.392 368.046 197.148 368.046 198.964V201.865H362.125V198.964C362.125 197.148 362.777 195.392 363.941 194.03Z" fill="#DEEDF2"/>
<path d="M364.099 202.359H366.073V199.319H364.099V202.359Z" fill="#C3DEE7"/>
<path d="M355.296 194.03H357.566C358.75 195.392 359.402 197.148 359.402 198.964V201.865H353.461V198.964C353.461 197.148 354.112 195.392 355.296 194.03Z" fill="#DEEDF2"/>
<path d="M355.435 202.359H357.428V199.319H355.435V202.359Z" fill="#C3DEE7"/>
<path d="M368.717 181.063H369.724V178.339H368.717V181.063Z" fill="#C3DEE7"/>
<path d="M356.421 173.563C356.421 173.563 359.106 173.978 359.402 177.53H353.461C353.757 173.978 356.421 173.563 356.421 173.563Z" fill="#C3DEE7"/>
<path d="M356.421 177.53H359.402V181.063H353.461V177.53H356.421Z" fill="#DEEDF2"/>
<path d="M342.054 154.241V149.465" stroke="#C3DEE7" stroke-width="9.69222"/>
<path d="M354.507 169.912H329.58C329.422 168.491 329.501 166.892 330.014 165.195H354.073C354.586 166.892 354.665 168.491 354.507 169.912Z" fill="#DEEDF2"/>
<path d="M342.053 182.385H335.777V201.865H348.31V182.385H342.053Z" fill="#DEEDF2"/>
<path d="M85.6565 158.919C83.7026 158.326 82.9723 159.076 82.9723 159.076C83.6236 157.715 85.1039 153.649 85.4394 149.544L79.6171 152.169L79.7947 148.004L69.2554 148.399C69.2554 148.399 68.5646 156.649 73.9527 161.622C80.0908 167.307 88.163 161.109 88.163 161.109C88.163 161.109 88.4986 159.767 85.6565 158.919Z" fill="#4FD0D0"/>
<path d="M212.661 133.991H134.366C126.531 133.991 121.636 125.524 125.564 118.735L142.498 89.4065C146.879 81.8079 154.004 76.2027 162.412 73.7357L173.523 70.4594L184.615 73.7357C193.023 76.2027 200.148 81.8079 204.53 89.4065L221.463 118.735C225.391 125.524 220.496 133.991 212.661 133.991Z" fill="#FFCC33"/>
<path d="M153.412 133.991H134.366C126.531 133.991 121.636 125.524 125.564 118.735L135.077 102.255L153.412 133.991Z" fill="#723846"/>
<path d="M212.661 133.991H190.753L210.51 99.7682L221.464 118.735C225.391 125.524 220.496 133.991 212.661 133.991Z" fill="#723846"/>
<path d="M186.037 68.1305L185.681 71.841C179.958 71.1305 177.412 66.9463 177.333 66.8082C179.366 67.8542 182.681 67.9529 185.366 67.8148L186.037 68.1305Z" fill="#F4A48D"/>
<path d="M114.649 137.268H219.608V133.833H114.649V137.268Z" fill="#DEEDF2"/>
<path d="M205.319 133.873H139.201C138.372 133.873 137.642 133.301 137.484 132.472L130.971 101.742C130.754 100.636 131.583 99.5904 132.708 99.5904H198.825C199.654 99.5904 200.384 100.183 200.562 100.992L207.055 131.741C207.292 132.847 206.444 133.873 205.319 133.873Z" fill="#9BC3D3"/>
<path d="M207.411 133.873H141.294C140.465 133.873 139.734 133.301 139.557 132.472L133.063 101.742C132.827 100.636 133.675 99.5904 134.8 99.5904H200.918C201.746 99.5904 202.477 100.183 202.654 100.992L209.148 131.741C209.385 132.847 208.536 133.873 207.411 133.873Z" fill="#DEEDF2"/>
<path d="M172.813 55.4005C173.207 57.0978 172.714 58.6965 171.668 58.9333C170.642 59.1899 169.477 58.0057 169.063 56.2886C168.648 54.5913 169.161 53.0123 170.188 52.7558C171.234 52.5189 172.398 53.6834 172.813 55.4005Z" fill="#FBC8B4"/>
<path d="M186.036 68.1305L185.681 71.841L185.089 78.4725C185.03 79.0251 184.852 79.5777 184.595 80.0711C184.319 80.5448 183.924 80.9593 183.471 81.2948C181.26 82.854 178.457 83.7816 175.398 83.7816C172.852 83.7816 170.484 83.1303 168.49 82.0053C166.793 81.0777 166.083 79.0251 166.754 77.2093C168.668 72.1568 172.576 61.8345 172.576 61.8345L184.753 67.5384L185.365 67.8147L186.036 68.1305Z" fill="#723846"/>
<path d="M175.517 38.506L183.135 41.4467L188.385 49.7558C190.201 52.6373 191.345 55.8939 191.74 59.2688L192.095 62.4464C192.194 63.3148 192.115 64.2227 191.76 65.0121C191.326 65.999 190.576 66.8476 189.609 67.4003L188.345 68.091C186.411 69.1568 184.201 69.6108 182.01 69.3739L169.655 68.0713L164.484 44.8809L175.517 38.506Z" fill="#723846"/>
<path d="M188.898 53.861L191.266 51.7492L183.135 41.4467L177.766 44.9795L188.898 53.861Z" fill="#723846"/>
<path d="M177.273 37.1442C176.76 36.9271 176.247 36.7297 175.714 36.5718C172.162 35.4468 168.234 35.5652 164.543 37.1442C161.267 38.5455 158.701 40.9336 157.024 43.7954C157.024 43.7954 157.004 43.8349 156.964 43.9138C156.925 43.973 156.885 44.0322 156.846 44.0914C155.859 45.8282 150.214 54.8084 137.524 62.3477C131.406 65.999 127.932 71.7028 127.932 77.8804C127.932 78.808 128.011 79.7553 128.149 80.683C128.938 85.5973 131.82 90.2157 136.813 92.9986C138.511 93.9459 140.366 94.3998 142.182 94.3998C145.991 94.3998 149.701 92.4262 151.734 88.8934L154.793 83.604C159.589 76.3409 164.306 73.5778 166.477 72.6305C167.03 72.3739 167.602 72.216 168.195 72.0778C169.576 71.7818 170.069 71.1897 170.069 71.1897C173.543 68.4463 172.734 59.6438 171.826 54.1965L177.333 44.6638C179.721 44.4467 181.931 43.0651 183.115 40.8349L184.773 37.7165C184.773 37.7165 181.102 36.7297 177.273 37.1442Z" fill="#3B101C"/>
<path d="M172.813 55.4005C173.207 57.0978 172.714 58.6965 171.668 58.9333C170.642 59.1899 169.477 58.0057 169.063 56.2886C168.648 54.5913 169.161 53.0123 170.188 52.7558C171.234 52.5189 172.398 53.6834 172.813 55.4005Z" fill="#723846"/>
</svg>
