<svg width="400" height="450" viewBox="0 0 400 450" fill="none" xmlns="http://www.w3.org/2000/svg">
<path d="M88.8016 265.491H169.003V211.025H88.8016V265.491Z" fill="#DEEDF2"/>
<path d="M74.4684 80.0126C74.4684 82.8162 76.7365 85.1157 79.5716 85.1157C82.4067 85.1157 84.6748 82.8162 84.6748 80.0126C84.6748 77.1775 82.4067 74.9094 79.5716 74.9094C76.7365 74.9094 74.4684 77.1775 74.4684 80.0126Z" fill="#DEEDF2"/>
<path d="M27.0596 78.1226C27.0596 81.9657 30.2097 85.1158 34.0843 85.1158C37.9589 85.1158 41.0775 81.9657 41.0775 78.1226C41.0775 74.2479 37.9589 71.0978 34.0843 71.0978C30.2097 71.0978 27.0596 74.2479 27.0596 78.1226Z" fill="#DEEDF2"/>
<path d="M53.9612 72.8619C53.9612 76.7365 57.1113 79.8866 60.9859 79.8866C64.8606 79.8866 67.9791 76.7365 67.9791 72.8619C67.9791 68.9873 64.8606 65.8687 60.9859 65.8687C57.1113 65.8687 53.9612 68.9873 53.9612 72.8619Z" fill="#DEEDF2"/>
<path d="M33.5486 67.7902C33.5486 74.7834 39.2188 80.4221 46.1805 80.4221C53.1738 80.4221 58.8439 74.7834 58.8439 67.7902C58.8439 60.7969 53.1738 55.1582 46.1805 55.1582C39.2188 55.1582 33.5486 60.7969 33.5486 67.7902Z" fill="#DEEDF2"/>
<path d="M33.5486 71.0978V85.1158H79.5716V74.9095L33.5486 71.0978Z" fill="#DEEDF2"/>
<path d="M386.801 97.2752C386.801 100.929 389.762 103.89 393.416 103.89C397.039 103.89 400 100.929 400 97.2752C400 93.6526 397.039 90.6915 393.416 90.6915C389.762 90.6915 386.801 93.6526 386.801 97.2752Z" fill="#DEEDF2"/>
<path d="M325.595 94.8496C325.595 99.8268 329.658 103.89 334.636 103.89C339.644 103.89 343.708 99.8268 343.708 94.8496C343.708 89.8409 339.644 85.7773 334.636 85.7773C329.658 85.7773 325.595 89.8409 325.595 94.8496Z" fill="#DEEDF2"/>
<path d="M360.34 88.0769C360.34 93.054 364.404 97.1177 369.413 97.1177C374.39 97.1177 378.453 93.054 378.453 88.0769C378.453 83.0682 374.39 79.0046 369.413 79.0046C364.404 79.0046 360.34 83.0682 360.34 88.0769Z" fill="#DEEDF2"/>
<path d="M333.943 81.5247C333.943 90.5339 341.282 97.8422 350.292 97.8422C359.301 97.8422 366.609 90.5339 366.609 81.5247C366.609 72.4839 359.301 65.1756 350.292 65.1756C341.282 65.1756 333.943 72.4839 333.943 81.5247Z" fill="#DEEDF2"/>
<path d="M333.943 85.7773V103.89H393.416V90.6915L333.943 85.7773Z" fill="#DEEDF2"/>
<path d="M352.276 95.1016H273.618C271.066 95.1016 269.019 97.1492 269.019 99.7008V193.227C269.019 195.779 271.066 197.826 273.618 197.826H352.276C354.827 197.826 356.875 195.779 356.875 193.227V99.7008C356.875 97.1492 354.827 95.1016 352.276 95.1016Z" fill="#C3DEE7"/>
<path d="M348.18 148.149L335.454 174.201C332.808 179.619 332.21 185.793 333.722 191.621L335.612 198.708L336.305 201.355C334.194 202.174 331.674 203.056 328.933 203.906C328.492 204.032 328.083 204.158 327.642 204.284L325.689 201.544L314.821 186.329C308.332 177.225 308.647 164.908 315.609 156.151C320.302 150.26 321.972 142.794 320.617 135.801C319.861 131.926 318.192 128.209 315.64 124.965L293.085 96.5191C290.534 93.3375 291.258 88.6754 294.66 86.3758C295.448 85.8403 296.33 85.4938 297.243 85.3048C299.228 84.9268 301.307 85.3993 302.945 86.7223L341.345 117.593C350.48 124.965 353.315 137.628 348.18 148.149Z" fill="#EBF4F7"/>
<path d="M337.628 143.676L327.831 170.956C325.783 176.626 325.878 182.832 328.02 188.439L332.304 199.527L333.406 202.426C332.02 202.93 330.508 203.402 328.933 203.906C327.957 204.19 327.012 204.505 326.067 204.757L323.767 202.174L308.678 185.258C301.212 176.941 300.173 164.656 306.127 155.174C310.127 148.811 310.978 141.219 308.867 134.415C307.702 130.635 305.654 127.107 302.724 124.177L277.209 98.4092C274.342 95.5111 274.531 90.786 277.65 88.1399C278.374 87.5098 279.225 87.0373 280.107 86.7853C282.028 86.1868 284.17 86.4388 285.934 87.5729L327.484 114.034C337.376 120.334 341.565 132.651 337.628 143.676Z" fill="white"/>
<path d="M365.727 8.82025L306.914 110.695C275.004 165.947 216.034 200 152.244 200H4.63031L63.4427 98.1256C95.3533 42.8729 154.323 8.82025 218.144 8.82025H365.727Z" fill="white"/>
<path d="M223.626 76.1065H242.81V24.5708H223.626V76.1065Z" fill="#DEEDF2"/>
<path d="M205.355 80.6741H224.539V29.1384H205.355V80.6741Z" fill="#DEEDF2"/>
<path d="M284.454 69.3023H300.52V7.87527H284.454V69.3023Z" fill="#DEEDF2"/>
<path d="M279.603 69.3023H284.455V7.87527C281.525 9.00931 279.603 11.8444 279.603 14.9945V69.3023Z" fill="white"/>
<path d="M256.135 61.3324H261.018V4.06359L256.135 5.92216V61.3324Z" fill="#DEEDF2"/>
<path d="M218.743 69.3023H223.626V24.5708L218.743 26.4294V69.3023Z" fill="white"/>
<path d="M277.492 69.3023H289.652V24.5708H277.492V69.3023Z" fill="#DEEDF2"/>
<path d="M287.227 69.3023H300.52V26.4609H287.227V69.3023Z" fill="#DEEDF2"/>
<path d="M261.017 61.3324H271.318V4.06359H261.017V61.3324Z" fill="#DEEDF2"/>
<path d="M250.654 69.3023H263.979V26.4609H250.654V69.3023Z" fill="#DEEDF2"/>
<path d="M245.235 69.3023H258.592V19.2472H245.235V69.3023Z" fill="#DEEDF2"/>
<path d="M228.477 69.3023H240.384V40.5103H228.477V69.3023Z" fill="#DEEDF2"/>
<path d="M104.174 54.2133C104.174 60.3875 99.1969 65.3646 93.0227 65.3646C86.88 65.3646 81.9028 60.3875 81.9028 54.2133C81.9028 48.0706 86.88 43.0934 93.0227 43.0934C99.1969 43.0934 104.174 48.0706 104.174 54.2133Z" fill="#DEEDF2"/>
<path d="M207.529 50.0866C207.529 58.5289 200.693 65.3647 192.251 65.3647C183.808 65.3647 176.973 58.5289 176.973 50.0866C176.973 41.6443 183.808 34.8086 192.251 34.8086C200.693 34.8086 207.529 41.6443 207.529 50.0866Z" fill="#DEEDF2"/>
<path d="M148.842 38.6518C148.842 47.094 142.006 53.9298 133.564 53.9298C125.122 53.9298 118.286 47.094 118.286 38.6518C118.286 30.2095 125.122 23.3738 133.564 23.3738C142.006 23.3738 148.842 30.2095 148.842 38.6518Z" fill="#DEEDF2"/>
<path d="M193.416 27.5949C193.416 42.8098 181.068 55.1582 165.853 55.1582C150.606 55.1582 138.258 42.8098 138.258 27.5949C138.258 12.3484 150.606 0 165.853 0C181.068 0 193.416 12.3484 193.416 27.5949Z" fill="#DEEDF2"/>
<path d="M193.416 34.8086V65.3647H93.0224V43.0934L193.416 34.8086Z" fill="#DEEDF2"/>
<path d="M72.8304 319.735H58.7494C46.527 319.735 38.4312 307.009 43.6289 295.952L46.905 288.959C50.2441 281.84 48.1651 273.334 41.8964 268.578L27.1224 257.363C17.1366 249.772 18.7746 234.273 30.1465 228.949C40.9828 223.878 43.1249 209.419 34.2416 201.449L30.3985 197.984C20.0976 188.691 24.9488 171.649 38.5887 169.16L68.9557 163.648C79.9496 161.632 89.7464 170.767 88.5494 181.887L88.0769 186.203C87.1319 194.897 93.0225 202.835 101.591 204.442L102.441 204.599C113.089 206.584 119.042 218.019 114.569 227.878L98.1887 264.167C95.5741 269.964 96.4562 276.736 100.52 281.651L109.372 292.424C118.349 303.323 110.6 319.735 96.4876 319.735H72.8304Z" fill="#DEEDF2"/>
<path d="M0 203.308H66.2152V159.899H0V203.308Z" fill="white"/>
<path d="M342.7 95.1331H262.781L264.451 92.2035L264.734 91.7625L281.997 61.8365L290.439 47.2201L295.921 37.7068C298.945 32.4776 306.537 32.4776 309.561 37.7068L335.36 82.3752L342.7 95.1331Z" fill="#C3DEE7"/>
<path d="M342.699 95.1331H263.852C264.104 94.0621 264.388 92.928 264.734 91.7625L281.997 61.8365L285.178 56.3238C286.848 59.0644 309.718 78.4376 331.831 81.7767C333.06 81.9657 334.226 82.1862 335.36 82.3752L342.699 95.1331Z" fill="#9BC3D3"/>
<path d="M238.998 126.508C238.998 147.267 222.176 164.12 201.386 164.12C180.627 164.12 163.773 147.267 163.773 126.508C163.773 105.717 180.627 88.8959 201.386 88.8959C222.176 88.8959 238.998 105.717 238.998 126.508Z" fill="white"/>
<path d="M398.079 172.941L319.043 309.844C300.079 342.668 265.05 362.923 227.123 362.923H160.907C158.765 362.923 156.686 363.49 154.891 364.53C153.095 365.569 151.552 367.081 150.481 368.94C148.339 372.657 144.338 374.957 140.054 374.957H12.9471L87.4155 245.96H159.679L201.827 172.941H398.079Z" fill="#DEEDF2"/>
<path d="M358.103 193.448C357.41 203.024 355.583 212.632 352.811 221.956C350.008 231.312 346.196 240.384 341.534 249.047C332.178 266.373 319.074 281.808 303.418 294.22C301.496 295.795 299.449 297.244 297.432 298.693L295.921 299.795L294.377 300.835L291.227 302.914C290.219 303.638 289.116 304.237 288.045 304.898L284.832 306.82C283.73 307.45 282.627 308.017 281.525 308.616C280.422 309.183 279.319 309.813 278.217 310.38C269.271 314.916 259.82 318.507 250.118 321.153C240.416 323.831 230.43 325.5 220.381 326.193C210.332 326.886 200.22 326.54 190.235 325.248C170.231 322.665 150.764 315.987 133.407 305.812C124.775 300.677 116.585 294.787 109.119 288.077L106.347 285.557C105.875 285.147 105.434 284.675 104.993 284.234L103.67 282.911L100.992 280.265C100.551 279.824 100.142 279.351 99.7006 278.91L98.4405 277.524L95.9204 274.72C95.5109 274.279 95.1329 273.775 94.7234 273.303L93.5264 271.854L91.1638 268.956C90.7543 268.483 90.4078 267.948 90.0298 267.475L88.8957 265.963C76.9883 249.961 68.357 231.627 63.7894 212.474L62.9704 208.883L62.7499 207.97C62.6869 207.686 62.6554 207.371 62.5924 207.056L62.2774 205.261C61.8679 202.835 61.3323 200.441 61.1118 197.984L60.6708 194.33C60.6078 193.731 60.5133 193.133 60.4818 192.534L60.3558 190.676L60.1038 187.022L59.9778 185.195L59.9463 183.367L59.9148 179.713L59.8833 177.918C59.8833 177.288 59.9148 176.689 59.9463 176.091L60.1038 172.437L60.1668 170.641C60.1983 170.011 60.2298 169.412 60.2928 168.814C60.6708 163.994 61.3008 159.175 62.2143 154.45C61.9308 173.697 64.8604 192.692 71.0031 210.364C77.1143 228.067 86.4387 244.448 98.3146 258.497L99.4486 259.82C99.7951 260.261 100.173 260.734 100.551 261.144L102.882 263.695L104.048 264.955C104.457 265.365 104.835 265.806 105.245 266.215L107.702 268.641L108.93 269.838C109.34 270.247 109.718 270.657 110.159 271.035L112.711 273.366L113.971 274.531C114.38 274.909 114.821 275.287 115.262 275.666L117.908 277.839C124.996 283.635 132.588 288.833 140.589 293.212C156.591 302 174.169 307.765 192.219 310.096L195.59 310.537C196.157 310.632 196.724 310.663 197.291 310.695L198.992 310.821C201.26 311.01 203.528 311.23 205.796 311.262L209.23 311.356C209.797 311.356 210.364 311.388 210.931 311.388L212.632 311.356C214.931 311.293 217.199 311.325 219.467 311.136C228.571 310.663 237.612 309.309 246.495 307.167C255.347 305.024 264.01 302 272.389 298.252C273.429 297.779 274.437 297.275 275.476 296.771C276.516 296.267 277.555 295.795 278.563 295.291L281.587 293.653L283.131 292.834C283.635 292.582 284.139 292.298 284.612 291.983L287.604 290.251L289.085 289.368L290.534 288.455C292.455 287.195 294.408 285.966 296.267 284.612C311.356 274.059 324.681 260.702 335.139 245.172C340.4 237.423 344.968 229.138 348.811 220.507C352.654 211.844 355.741 202.772 358.103 193.448Z" fill="white"/>
<path d="M337.628 143.676L327.831 170.956C325.783 176.626 325.878 182.832 328.02 188.439L343.96 220.35C343.96 220.35 342.07 221.043 341.125 221.295L308.678 185.258C301.213 176.941 300.173 164.656 306.127 155.174C310.127 148.811 310.978 141.219 308.867 134.415C307.702 130.635 305.654 127.107 302.725 124.177L277.209 98.4092C274.342 95.5111 274.531 90.786 277.65 88.1399C278.374 87.5098 279.225 87.0373 280.107 86.7853C282.028 86.1868 284.17 86.4388 285.935 87.5729L327.485 114.034C337.376 120.334 341.566 132.651 337.628 143.676Z" fill="white"/>
<path d="M307.608 95.1331H234.431L264.766 42.5893C267.538 37.7697 274.5 37.7697 277.272 42.5893L285.179 56.3238L307.608 95.1331Z" fill="#C3DEE7"/>
<path d="M298.378 223.437L298.535 238.715C298.598 248.008 307.45 254.717 316.428 252.26L366.389 238.589L360.057 208.127L350.796 208.915C344.243 209.513 337.943 211.75 332.493 215.467L308.742 231.627L308.773 221.011L298.378 223.437Z" fill="#9BC3D3"/>
<path d="M377.35 179.902C377.602 181.351 377.665 182.832 377.539 184.281C377.193 188.219 375.492 191.999 372.562 194.897C371.901 195.558 371.176 196.157 370.42 196.692C368.971 197.7 367.428 198.456 365.853 198.992C358.985 201.197 351.173 198.803 346.795 192.597C346.291 191.873 345.85 191.148 345.503 190.392C343.991 187.368 343.456 184.06 343.834 180.847C343.865 180.69 343.865 180.532 343.897 180.406C344.243 177.949 345.125 175.618 346.511 173.508C347.645 171.775 349.126 170.232 350.921 168.971C358.576 163.616 369.129 165.443 374.515 173.098C375.555 174.579 376.311 176.154 376.815 177.76C377.067 178.485 377.224 179.178 377.35 179.902Z" fill="#4FD0D0"/>
<path d="M305.402 225.925L298.378 223.437L295.857 214.522C295.448 212.789 295.637 210.931 296.425 209.324L296.803 208.568C296.803 207.907 296.771 207.245 296.645 206.615C296.519 205.922 296.33 205.261 296.078 204.599L295.921 204.221C295.7 203.591 295.984 202.898 296.614 202.646L298.598 202.048L305.402 225.925Z" fill="#723846"/>
<path d="M321.657 242.4C321.909 243.66 320.428 244.574 319.389 243.786C318.255 242.873 316.869 241.802 315.388 240.636C310.726 237.045 305.182 232.73 303.638 231.532C303.355 231.312 303.166 230.997 303.103 230.682L294.66 184.816C294.471 183.714 295.574 182.832 296.613 183.273L311.041 189.447C311.482 189.636 311.797 190.014 311.86 190.487L315.294 208.694L319.326 230.115L321.594 242.148L321.657 242.4Z" fill="#C3DEE7"/>
<path d="M321.594 242.148L309.781 228.414C309.025 227.469 308.647 226.272 308.773 225.138L308.994 222.618L317.625 221.074L319.326 230.115L321.594 242.148Z" fill="#7B8BAF"/>
<path d="M317.94 209.576L319.767 207.34C319.956 207.119 319.987 206.804 319.893 206.552C319.735 206.111 319.357 205.828 318.916 205.765C318.349 205.67 317.53 205.733 316.743 206.3C315.294 207.34 317.94 209.576 317.94 209.576Z" fill="#723846"/>
<path d="M315.735 204.473C315.136 204.599 314.727 205.166 314.821 205.796L315.577 210.899L308.899 203.906C308.458 203.465 307.796 203.276 307.198 203.528C306.442 203.843 306.095 204.725 306.41 205.45L307.009 206.993C307.04 207.056 306.946 207.119 306.914 207.088C306.694 206.773 306.347 206.615 305.969 206.647C304.804 206.804 304.426 207.97 304.93 208.726L306.725 211.214L306.347 211.624C306.064 211.939 305.969 212.411 306.095 212.852L308.773 221.011L308.647 225.012C308.616 226.02 309.057 227.028 309.813 227.721L321.027 236.006L328.398 230.304L324.492 218.995C324.051 217.704 323.39 216.507 322.539 215.404L318.444 210.175L317.121 205.324C316.963 204.725 316.365 204.347 315.735 204.473Z" fill="#723846"/>
<path d="M380.722 250.118L364.688 268.2C357.253 276.642 343.708 275.319 338.101 265.585L320.901 235.785L326.76 225.61L380.722 250.118Z" fill="#C3DEE7"/>
<path d="M368.94 184.439C368.94 184.439 366.955 194.109 369.286 197.795C369.286 197.795 375.397 194.172 375.114 187.62C374.83 181.068 368.94 184.439 368.94 184.439Z" fill="#EB1D23"/>
<path d="M372.909 191.306C374.043 191.999 374.2 193.889 373.224 195.495C372.247 197.102 370.515 197.858 369.381 197.165C368.216 196.472 368.09 194.582 369.066 192.975C370.043 191.369 371.743 190.613 372.909 191.306Z" fill="#7F3644"/>
<path d="M369.822 196.283L368.814 199.055L362.388 216.506C361.411 219.153 359.458 221.358 356.907 222.618C356.907 222.618 356.875 222.618 356.844 222.618C356.182 222.964 355.489 223.216 354.764 223.405C353.693 223.689 352.685 223.846 351.677 223.815C351.394 223.815 351.11 223.815 350.827 223.783C350.701 223.783 350.575 223.752 350.449 223.752C346.322 223.468 343.96 218.964 346.007 215.404L350.228 208.127L351.551 205.828C351.52 205.828 351.488 205.859 351.457 205.859C351.079 205.985 350.701 206.08 350.354 206.143C350.102 206.206 349.819 206.269 349.598 206.3C346.511 206.741 343.582 204.82 342.763 201.796C342.259 200.063 341.786 197.858 341.975 196.346L340.368 196.724L343.96 182.265C344.117 181.666 344.275 181.068 344.464 180.501C345.125 178.548 346.07 176.689 347.267 174.988V174.957C348.779 172.815 351.047 171.429 353.504 170.988C354.166 170.893 354.827 170.83 355.489 170.862C356.434 170.893 357.348 171.051 358.293 171.366C360.403 172.09 362.199 173.539 363.364 175.429L363.522 175.681L368.94 184.438L369.917 186.014C371.87 189.164 371.807 193.164 369.822 196.283Z" fill="#723846"/>
<path d="M387.4 206.332C383.777 199.622 376.815 177.76 376.815 177.76C376.815 177.76 373.76 177.729 371.113 179.052C368.373 171.176 360.214 168.373 355.646 169.16C350.764 170.011 348.559 172.846 347.551 173.193C346.511 173.508 343.96 180.217 343.96 182.265C343.96 182.265 346.921 173.539 354.008 173.224C360.12 172.972 365.632 179.335 367.522 187.431C369.412 197.196 365.884 207.119 354.418 214.648C342.92 222.145 306.568 254.15 348.055 262.025C389.542 269.901 397.7 225.358 387.4 206.332Z" fill="#4FD0D0"/>
<path d="M368.845 187.273C370.168 187.62 370.861 189.353 370.389 191.18C369.948 193.007 368.53 194.235 367.239 193.92C365.916 193.605 365.223 191.873 365.695 190.014C366.136 188.187 367.554 186.958 368.845 187.273Z" fill="#723846"/>
<path d="M343.959 182.265C343.959 182.265 350.071 181.414 351.551 177.004L351.992 175.65C351.992 175.65 366.64 191.369 368.404 187.935C371.554 181.698 359.049 169.791 358.671 169.854C358.324 169.917 349.661 172.185 349.283 172.846C348.937 173.508 346.133 175.272 346.133 175.272L343.959 182.265Z" fill="#4FD0D0"/>
<path d="M320.05 202.867L323.011 197.795" stroke="#9BC3D3" stroke-width="2.48722" stroke-dasharray="4 4"/>
<path d="M38.7777 261.049C38.7777 263.601 36.6987 265.68 34.1156 265.68C31.564 265.68 29.4849 263.601 29.4849 261.049C29.4849 258.466 31.564 256.387 34.1156 256.387C36.6987 256.387 38.7777 258.466 38.7777 261.049Z" fill="#FFCC33"/>
<path d="M129.658 141.062L119.924 224.602L151.079 285.462L259.537 230.556L197.385 104.205L129.658 141.062Z" fill="#F4A48D"/>
<path d="M161.033 152.055L149.252 126.477L136.998 134.698C131.107 138.667 126.571 144.306 123.957 150.921L119.011 163.364C117.909 166.105 118.098 169.192 119.547 171.775C122.98 177.981 131.611 178.642 135.959 173.067L149.599 155.615L161.033 152.055Z" fill="#F4A48D"/>
<path d="M134.73 252.103L148.401 289.557C152.906 301.874 158.545 313.75 165.286 325.027L187.211 361.726L254.78 331.832L189.447 220.728L134.73 252.103Z" fill="#F4A48D"/>
<path d="M171.618 111.167L150.449 134.194L136.557 105.497C133.47 99.1022 130.698 92.55 128.367 85.8403C127.201 82.5642 126.162 79.2566 125.563 76.705C124.776 73.1769 124.208 69.6803 124.208 66.9397V64.5456C124.208 64.0101 124.24 63.4746 124.335 62.939C124.996 58.5604 128.43 55.0008 132.934 54.2448C137.281 53.5202 141.597 55.6308 143.739 59.4739L146.921 65.3646L171.618 111.167Z" fill="#F4A48D"/>
<path d="M342.07 449.961H238.148L187.462 362.167L187.053 361.474L186.139 359.868L209.072 342.889L209.765 342.416L242.841 317.908L244.857 316.396L245.456 315.955L258.938 305.969L267.192 320.239L272.641 329.69L297.905 373.476L319.389 410.647V410.679L326.162 422.366L342.07 449.961Z" fill="#F4A48D"/>
<path d="M220.791 282.848L142.574 270.877C133.88 269.554 127.926 261.427 129.249 252.733L161.128 44.4166C162.451 35.7223 170.578 29.7371 179.273 31.0916L257.458 43.062C266.153 44.3851 272.106 52.4808 270.783 61.1751L238.904 269.523C237.581 278.217 229.454 284.171 220.791 282.848Z" fill="#881D52"/>
<path d="M215.971 282.092L137.754 270.153C129.091 268.798 123.106 260.702 124.461 252.008L156.308 43.6605C157.663 34.9662 165.758 29.0125 174.453 30.3355L252.67 42.3059C261.364 43.629 267.318 51.7562 265.995 60.4505L234.116 268.767C232.793 277.461 224.665 283.446 215.971 282.092Z" fill="white"/>
<path d="M264.64 69.3023L235.155 261.868C234.241 267.885 226.807 271.696 220.822 270.783L134.667 257.615C128.682 256.67 124.586 251.095 125.5 245.11L154.985 52.5123C155.898 46.5271 161.474 42.4004 167.459 43.3455L253.615 56.5129C259.6 57.4264 265.553 63.3171 264.64 69.3023Z" fill="white"/>
<path d="M236.132 255.505L235.187 261.868C235.124 262.214 235.061 262.53 234.966 262.813C233.454 268.263 226.492 271.633 220.822 270.783L134.667 257.584C129.406 256.796 125.595 252.355 125.374 247.22C125.374 246.527 125.406 245.803 125.5 245.109L126.477 238.715L236.132 255.505Z" fill="#EBF4F7"/>
<path d="M218.712 45.015L206.048 43.062C205.639 42.9989 205.387 42.6524 205.418 42.2429C205.481 41.8334 205.859 41.5499 206.269 41.6129L218.932 43.566C219.342 43.629 219.625 44.007 219.562 44.385C219.499 44.7945 219.121 45.078 218.712 45.015Z" fill="#DEEDF2"/>
<path d="M236.699 47.0311C236.478 48.4801 235.124 49.4567 233.675 49.2362C232.226 49.0157 231.249 47.6611 231.47 46.2121C231.69 44.7631 233.045 43.7865 234.494 44.007C235.943 44.2275 236.919 45.5821 236.699 47.0311Z" fill="#DEEDF2"/>
<path d="M191.463 40.1008C191.337 40.8568 190.612 41.3608 189.888 41.2663C189.132 41.1403 188.596 40.4473 188.722 39.6913C188.817 38.9353 189.541 38.3998 190.297 38.5258C191.053 38.6518 191.557 39.3448 191.463 40.1008Z" fill="#DEEDF2"/>
<path d="M196.756 40.9198C196.63 41.6759 195.937 42.1799 195.18 42.0539C194.424 41.9594 193.889 41.2348 194.015 40.4788C194.141 39.7228 194.834 39.2188 195.59 39.3448C196.346 39.4393 196.85 40.1638 196.756 40.9198Z" fill="#DEEDF2"/>
<path d="M264.64 69.3023L259.946 99.9528L150.292 83.1628L154.985 52.5123C155.899 46.5271 161.474 42.4004 167.46 43.3455L253.615 56.5129C259.6 57.4264 265.554 63.3171 264.64 69.3023Z" fill="#EB1D23"/>
<path d="M164.53 136.872L225.233 146.165" stroke="#C3DEE7" stroke-width="1.59806"/>
<path d="M220.571 85.9033L161.821 76.9255L161.506 79.0991L220.256 88.1084L220.571 85.9033Z" fill="#C80000"/>
<path d="M182.832 76.327L162.388 73.2084L162.073 75.382L182.486 78.5321L182.832 76.327Z" fill="#C80000"/>
<path d="M168.152 209.072L139.486 204.694L135.108 233.328L163.742 237.707L168.152 209.072Z" fill="#EBF4F7"/>
<path d="M201.04 214.081L172.374 209.702L167.995 238.368L196.629 242.747L201.04 214.081Z" fill="#EBF4F7"/>
<path d="M233.927 219.121L205.261 214.742L200.882 243.408L229.517 247.787L233.927 219.121Z" fill="#EBF4F7"/>
<path d="M253.205 144.023L143.55 127.233L150.292 83.1628L259.946 99.9528L253.205 144.023Z" fill="#EBF4F7"/>
<path d="M253.205 144.023L246.464 188.061L136.809 171.303L139.865 151.299L140.841 144.842L143.55 127.233L161.411 129.973L163.616 130.288L168.153 130.981L168.342 131.013L253.205 144.023Z" fill="#9BC3D3"/>
<path d="M176.595 133.155C175.303 134.982 173.854 136.746 172.248 138.416C170.547 140.18 168.72 141.755 166.83 143.141C159.395 148.59 148.811 151.299 139.865 151.299L140.841 144.842L143.55 127.233L161.411 129.973L170.641 132.241L176.595 133.155Z" fill="#7B8BAF"/>
<path d="M180.721 146.637L166.829 143.141L161.38 141.755L170.641 132.241L176.595 133.155C176.658 133.06 176.721 132.966 176.784 132.871L176.878 133.186L180.721 146.637Z" fill="#7B8BAF"/>
<path d="M247.44 120.586C246.369 127.642 239.754 132.525 232.666 131.422C225.61 130.351 220.728 123.736 221.83 116.648C222.901 109.592 229.516 104.741 236.604 105.812C243.66 106.883 248.511 113.498 247.44 120.586Z" fill="#DEEDF2"/>
<path d="M240.573 165.538C239.471 172.626 232.856 177.477 225.799 176.374C218.712 175.303 213.86 168.688 214.932 161.632C216.034 154.544 222.649 149.693 229.705 150.764C236.793 151.866 241.644 158.45 240.573 165.538Z" fill="#EBF4F7"/>
<path d="M216.192 114.664L157.443 105.686L157.096 107.86L215.846 116.869L216.192 114.664Z" fill="white"/>
<path d="M197.733 158.23L157.443 152.055L157.096 154.26L197.386 160.403L197.733 158.23Z" fill="white"/>
<path d="M236.132 255.505L235.187 261.868C235.124 262.215 235.061 262.53 234.966 262.813H234.903L235.155 261.144L125.626 244.385L126.477 238.715L236.132 255.505Z" fill="#EB1D23"/>
<path d="M272.327 332.367L239.881 342.322L213.609 350.386L213.483 350.102L211.435 345.85L208.222 339.235C206.521 335.738 205.324 332.052 204.663 328.272C203.969 324.492 203.812 320.617 204.19 316.743C205.86 299.417 209.986 282.501 216.349 266.499C221.799 252.796 228.918 239.754 237.581 227.689L239.345 225.232C243.377 219.594 245.047 212.6 243.976 205.733L242.968 199.118C241.708 190.833 241.519 182.391 242.464 174.043C242.464 174.043 244.196 148.086 254.308 130.698C255.694 128.304 257.899 126.54 260.356 125.437C262.782 124.335 265.554 123.925 268.295 124.366C269.397 124.524 270.374 124.933 271.193 125.563C272.925 126.855 273.996 128.997 273.776 131.328L271.886 154.009L271.823 154.576L282.565 224.823C283.825 233.076 283.73 241.455 282.344 249.677L277.083 293.149L272.327 332.367Z" fill="#F4A48D"/>
<path d="M125.5 232.73L125.374 232.793C121.216 235.187 115.924 233.958 113.278 229.958L99.6064 209.356C96.8973 205.292 97.4013 199.937 100.803 196.472L102.567 194.645C103.008 194.235 103.449 193.857 103.922 193.511C108.521 190.266 115.199 191.841 117.751 197.165L127.075 216.601L129.154 220.948C131.202 225.232 129.627 230.367 125.5 232.73Z" fill="#F4A48D"/>
<path d="M109.308 163.868L106.946 165.758C102.41 169.349 100.961 175.618 103.544 180.847L116.617 207.371C119.137 212.506 125.216 214.774 130.477 212.6L130.666 212.506C135.895 210.332 138.573 204.505 136.809 199.118L126.918 169.192C124.492 161.789 115.451 159.049 109.308 163.868Z" fill="#F4A48D"/>
<path d="M188.943 88.2029C198.992 105.623 193.038 127.894 175.618 137.943C158.198 148.023 135.927 142.038 125.878 124.618C115.797 107.198 121.783 84.9268 139.203 74.8779C156.623 64.7976 178.894 70.7828 188.943 88.2029Z" fill="white"/>
<path d="M166.892 102.567C167.113 100.583 166.703 98.5352 165.664 96.7081L164.278 94.3141L158.702 84.6748C158.167 83.7297 157.82 82.7532 157.6 81.7452L157.316 82.2492C155.615 85.2418 155.584 88.8959 157.316 91.8885L163.081 101.906C164.593 104.835 164.53 108.332 162.892 111.199L162.577 111.703C162.388 110.695 162.01 109.687 161.506 108.773L162.01 109.687L157.316 101.528L153.032 94.0935L153.158 94.3141C152.622 93.4005 152.244 92.3925 152.055 91.3845L151.772 91.8885C150.039 94.8811 150.039 98.5667 151.772 101.528L151.929 101.843L155.93 108.773L157.316 111.199C159.049 114.16 159.049 117.845 157.316 120.838L157.033 121.342C156.812 120.334 156.466 119.357 155.93 118.412L156.466 119.326L148.968 106.379C148.307 105.182 147.897 103.89 147.74 102.567C139.455 104.457 133.69 108.679 133.69 113.593C133.69 120.271 144.275 125.658 157.316 125.658C170.357 125.658 180.942 120.271 180.942 113.593C180.942 108.679 175.177 104.457 166.892 102.567Z" fill="#EA0000"/>
<path d="M180.658 146.7L165.916 138.163L180.658 129.658V146.7Z" fill="white"/>
<path d="M134.446 289.904C134.446 298.252 127.674 305.024 119.326 305.024C110.978 305.024 104.205 298.252 104.205 289.904C104.205 281.556 110.978 274.783 119.326 274.783C127.674 274.783 134.446 281.556 134.446 289.904Z" fill="#7B8BAF"/>
<path d="M132.84 287.226C132.84 295.574 126.067 302.347 117.719 302.347C109.371 302.347 102.599 295.574 102.599 287.226C102.599 278.879 109.371 272.106 117.719 272.106C126.067 272.106 132.84 278.879 132.84 287.226Z" fill="white"/>
<path d="M126.036 286.628H109.403M110.569 293.558H124.87C125.532 293.558 126.036 293.054 126.036 292.393V283.635C126.036 283.005 125.532 282.47 124.87 282.47H110.569C109.939 282.47 109.403 283.005 109.403 283.635V292.393C109.403 293.054 109.939 293.558 110.569 293.558ZM109.403 284.549H126.036H109.403Z" stroke="#EB1D23" stroke-width="1.48042" stroke-linejoin="round"/>
<path d="M303.544 46.1175C303.544 54.4653 296.771 61.2065 288.423 61.2065C280.075 61.2065 273.303 54.4653 273.303 46.1175C273.303 37.7697 280.075 30.9969 288.423 30.9969C296.771 30.9969 303.544 37.7697 303.544 46.1175Z" fill="#7B8BAF"/>
<path d="M301.937 43.4399C301.937 51.7877 295.165 58.5289 286.817 58.5289C278.469 58.5289 271.696 51.7877 271.696 43.4399C271.696 35.0921 278.469 28.3194 286.817 28.3194C295.165 28.3194 301.937 35.0921 301.937 43.4399Z" fill="white"/>
<path d="M296.425 44.6685H277.241H296.425Z" fill="white"/>
<path d="M296.425 44.6685H277.241" stroke="#EB1D23" stroke-width="1.86542" stroke-linecap="round" stroke-linejoin="round"/>
<path d="M287.919 44.6685L288.014 44.5425C288.234 44.1645 288.36 43.692 288.36 43.251V41.0459C288.392 40.0063 288.927 39.5968 289.873 39.5968C290.156 39.5968 290.44 39.6283 290.723 39.6913C290.944 39.7543 291.133 39.8173 291.322 39.8173C291.479 39.8173 291.605 39.7858 291.763 39.7543C291.889 39.6913 292.046 39.6598 292.172 39.6598C292.393 39.6283 292.582 39.5968 292.802 39.5968C293.621 39.5968 294.377 40.0378 294.409 41.0144V43.251C294.409 43.692 294.283 44.1645 294.062 44.5425L293.999 44.6685H287.919Z" fill="white"/>
<path d="M287.919 44.6685L288.014 44.5425C288.234 44.1645 288.36 43.692 288.36 43.251V41.0459C288.392 40.0063 288.927 39.5968 289.873 39.5968C290.156 39.5968 290.44 39.6283 290.723 39.6913C290.944 39.7543 291.133 39.8173 291.322 39.8173C291.479 39.8173 291.605 39.7858 291.763 39.7543C291.889 39.6913 292.046 39.6598 292.172 39.6598C292.393 39.6283 292.582 39.5968 292.802 39.5968C293.621 39.5968 294.377 40.0378 294.409 41.0144V43.251C294.409 43.692 294.283 44.1645 294.062 44.5425L293.999 44.6685H287.919V44.6685Z" stroke="#EB1D23" stroke-width="1.86542" stroke-linecap="round" stroke-linejoin="round"/>
<path d="M282.249 34.5566C282.942 34.5566 283.635 35.0921 283.509 35.8167L283.32 37.0137C283.226 37.5807 282.816 38.0847 282.249 38.0847C281.651 38.0847 281.241 37.5807 281.178 37.0137L280.989 35.8167C280.863 35.0921 281.556 34.5566 282.249 34.5566Z" fill="white"/>
<path d="M282.249 34.5566C282.942 34.5566 283.635 35.0921 283.509 35.8167L283.32 37.0137C283.226 37.5807 282.816 38.0847 282.249 38.0847C281.651 38.0847 281.241 37.5807 281.178 37.0137L280.989 35.8167C280.863 35.0921 281.556 34.5566 282.249 34.5566Z" stroke="#EB1D23" stroke-width="1.86542" stroke-linecap="round" stroke-linejoin="round"/>
<path d="M291.322 34.5566C292.015 34.5566 292.708 35.0921 292.582 35.8167L292.393 37.0137C292.33 37.5807 291.92 38.0847 291.322 38.0847C290.755 38.0847 290.345 37.5807 290.251 37.0137L290.062 35.8167C289.967 35.0921 290.629 34.5566 291.322 34.5566Z" fill="white"/>
<path d="M291.322 34.5566C292.015 34.5566 292.708 35.0921 292.582 35.8167L292.393 37.0137C292.33 37.5807 291.92 38.0847 291.322 38.0847C290.755 38.0847 290.345 37.5807 290.251 37.0137L290.062 35.8167C289.967 35.0921 290.629 34.5566 291.322 34.5566Z" stroke="#EB1D23" stroke-width="1.86542" stroke-linecap="round" stroke-linejoin="round"/>
<path d="M280.265 53.7723V45.645L279.603 44.2905C279.383 43.9124 279.257 43.4399 279.257 42.9989V41.0459C279.32 40.0063 279.95 39.5968 280.895 39.5968C281.178 39.5968 281.367 39.6283 281.651 39.6913C281.84 39.7543 282.029 39.8173 282.249 39.8173C282.375 39.8173 282.533 39.7858 282.659 39.7543C282.785 39.6913 282.942 39.6598 283.1 39.6598C283.289 39.6283 283.509 39.5968 283.698 39.5968C284.549 39.5968 285.274 40.0378 285.337 41.0144V42.9989C285.337 43.4399 285.211 43.9124 284.959 44.2905L284.297 45.645V53.7723" fill="white"/>
<path d="M280.265 53.7723V45.645L279.603 44.2905C279.383 43.9124 279.257 43.4399 279.257 42.9989V41.0459C279.32 40.0063 279.95 39.5968 280.895 39.5968C281.178 39.5968 281.367 39.6283 281.651 39.6913C281.84 39.7543 282.029 39.8173 282.249 39.8173C282.375 39.8173 282.533 39.7858 282.659 39.7543C282.785 39.6913 282.942 39.6598 283.1 39.6598C283.289 39.6283 283.509 39.5968 283.698 39.5968C284.549 39.5968 285.274 40.0378 285.337 41.0144V42.9989C285.337 43.4399 285.211 43.9124 284.959 44.2905L284.297 45.645V53.7723" stroke="#EB1D23" stroke-width="1.86542" stroke-linecap="round" stroke-linejoin="round"/>
<path d="M282.249 53.7723V47.4091V53.7723Z" fill="white"/>
<path d="M282.249 53.7723V47.4091" stroke="#EB1D23" stroke-width="1.86542" stroke-linecap="round" stroke-linejoin="round"/>
<path d="M83.9815 277.429V293.905" stroke="#9BC3D3" stroke-width="2.48722" stroke-dasharray="4 4"/>
<path d="M14.6479 202.677C14.6479 201.984 22.2081 201.417 31.5009 201.417C40.8252 201.417 48.354 201.984 48.354 202.677C48.354 203.371 40.8252 203.938 31.5009 203.938C22.2081 203.938 14.6479 203.371 14.6479 202.677Z" fill="#7B8BAF"/>
<path d="M66.215 198.74V203.213H83.9501L85.8402 202.363L79.0674 201.008C79.0674 201.008 75.6339 199.78 75.4763 198.74H66.215Z" fill="#9BC3D3"/>
<path d="M82.3436 132.714C81.556 135.013 79.288 173.193 79.288 173.193L75.5078 198.866H66.215L66.467 180.123L66.5615 172.342L67.1286 131.737V130.257L82.3436 132.714Z" fill="#9BC3D3"/>
<path d="M40.8252 127.485L37.4546 126.319L51.126 86.7853L54.5282 87.9508L40.8252 127.485Z" fill="#881D52"/>
<path d="M54.4966 84.0763L61.2378 82.2807L64.8919 87.7934L56.2607 90.7545L54.4966 84.0763Z" fill="#881D52"/>
<path d="M81.7454 94.2196L84.612 111.041L88.4236 109.655C88.4236 109.655 90.2192 110.506 90.4397 112.868C90.6287 115.073 89.1482 117.089 87.0061 117.688L81.3989 119.2L81.7454 94.2196Z" fill="#A44271"/>
<path d="M41.5811 184.312C41.5811 184.312 37.9901 187.053 37.8641 187.526C37.7696 187.809 46.9993 203.213 46.9993 203.213L48.3854 202.804L48.1018 192.818C48.2279 192.093 48.4484 191.4 48.7319 190.707L49.2989 189.384L41.5811 184.312Z" fill="#9BC3D3"/>
<path d="M73.3343 135.045L70.0897 172.248C70.0267 172.972 69.6802 173.665 69.1131 174.169L48.0705 192.629C48.0705 192.629 40.9197 192.093 40.6992 184.754L59.4738 167.144L53.1421 138.447L62.7499 130.257L73.3343 135.045Z" fill="#9BC3D3"/>
<path d="M89.5573 111.199L92.0459 110.695H93.0854C94.125 110.695 94.9125 109.718 94.692 108.679L94.0935 106.064C93.999 105.686 93.432 105.119 93.432 105.119L93.1485 104.898C92.7074 104.615 92.1719 104.52 91.6679 104.583L88.9588 105.087L82.5956 110.128L87.7618 112.805L89.5573 111.199Z" fill="#FFC2B6"/>
<path d="M85.6196 110.317L90.5022 106.253H94.7864L89.5572 111.199L85.6196 110.317Z" fill="white"/>
<path d="M83.7924 69.4597L82.6269 70.4363L76.9252 67.1287L73.8696 71.4128L71.7591 72.5468L68.5144 75.3819C67.6324 74.0589 67.1284 72.4838 67.1284 70.8143C67.1284 66.1836 70.9085 62.435 75.5077 62.435C79.6973 62.435 83.1624 65.4591 83.7924 69.4597Z" fill="#EA0000"/>
<path d="M74.5945 84.3598L72.673 90.6284C72.673 90.6284 69.7119 90.3449 67.0973 88.5494C65.5222 87.4468 64.0417 85.8088 63.4432 83.3202C63.4432 83.3202 67.0028 79.7291 68.6723 73.9329C68.8928 73.1139 69.0819 72.2949 69.2394 71.4128L74.5945 84.3598Z" fill="#FFC4B8"/>
<path d="M82.3437 132.714L73.3344 135.045L65.1756 86.1238H65.3646C66.8451 87.4468 68.7982 88.2344 70.9403 88.2344C72.1688 88.2344 73.3029 87.9823 74.3424 87.5413L76.9885 89.9039L81.5561 107.734L82.3437 132.714Z" fill="#C3DEE7"/>
<path d="M83.1627 69.9638L83.1312 70.7513C83.1312 71.7593 82.9737 72.7674 82.6587 73.7439V73.7754C82.3437 74.8464 81.9027 75.8545 81.4617 76.7365C80.6111 78.3431 79.7291 79.5401 79.4141 79.9181C79.3511 80.0126 79.2881 80.0441 79.2881 80.0441L78.9416 80.8001L78.3116 82.2177C78.0911 82.6902 77.8075 83.0997 77.461 83.4777C77.209 83.7297 76.9255 83.9817 76.6105 84.1707C76.264 84.3912 75.8545 84.5803 75.4449 84.6748C75.2244 84.7378 75.0354 84.8008 74.8149 84.8323C74.6889 84.8323 74.5629 84.8638 74.4684 84.8638C74.3739 84.8638 74.2794 84.8638 74.1849 84.8638H73.7754L69.4913 77.461L69.2078 76.327L70.0268 75.1614L70.4993 74.4684L70.8143 73.9959L71.7593 72.6729L71.9168 72.4839L73.6809 69.9638L73.7439 69.9008L77.083 65.6796L83.1312 69.9323L83.1627 69.9638Z" fill="#FFC4B8"/>
<path d="M82.6898 73.7124L82.6584 73.7439V73.7754L82.2489 75.7915L81.3983 80.0441L79.4138 79.9181L78.6892 79.8866L78.7522 79.6661L79.0672 78.4061L79.4138 76.9885L82.6898 73.7124Z" fill="#FFC4B8"/>
<path d="M75.5078 137.407C71.1922 139.802 52.7011 139.518 53.1421 138.447C53.3311 138.038 55.8197 129.69 57.0167 119.2C57.0482 118.979 57.0797 118.759 57.1112 118.538C58.1192 109.498 58.8438 99.1652 59.2533 91.92C59.5683 86.4388 59.6943 82.7217 59.6943 82.7217L62.0884 80.0441C62.0884 80.0441 75.1928 93.0225 77.7444 104.048C78.3114 106.505 78.7209 109.466 78.9729 112.522C79.1619 114.506 79.2564 116.554 79.2879 118.601C79.4454 127.422 78.2484 135.927 75.5078 137.407Z" fill="#A44271"/>
<path d="M79.2882 118.601H76.8626L76.5161 121.184L57.1115 118.538C58.1195 109.498 58.844 99.1652 59.2535 91.92L64.2307 92.3295L62.8762 99.9842L61.1751 109.624L66.0263 110.632L75.445 112.522H78.9732C79.1622 114.506 79.2567 116.554 79.2882 118.601Z" fill="#881D52"/>
<path d="M79.8864 108.805C79.6974 108.521 75.1297 92.676 73.7122 87.7933C73.6492 87.7933 73.5862 87.8248 73.5232 87.8563L73.7122 87.2263L73.8697 86.7223L79.4769 90.2189C80.8315 91.0695 81.7135 92.5815 81.745 94.2196L82.249 110.6L85.2101 136.053C85.3991 137.533 83.9501 138.699 82.5325 138.258L81.682 137.974L79.8864 108.805Z" fill="#A44271"/>
<path d="M77.0512 109.34L80.3273 108.805L82.7844 107.166C83.0364 107.009 83.3199 106.914 83.6349 106.946L88.7381 107.387C89.1476 107.418 89.3366 107.954 89.0216 108.238C88.6436 108.584 88.1081 108.931 87.5095 108.899C86.2495 108.805 84.2965 108.805 84.2965 108.805L84.8634 110.033H89.6831C90.5651 110.033 91.1322 110.947 90.7856 111.766C90.4706 112.49 89.4941 113.561 88.9586 114.128C88.7066 114.412 88.3915 114.601 88.045 114.727L85.3045 115.609C84.9265 115.735 84.517 115.766 84.1389 115.672L76.5472 113.845L77.0512 109.34Z" fill="#FFC2B6"/>
<path d="M62.3405 89.9039C62.3405 93.2745 59.5999 95.9836 56.2608 95.9836C52.8902 95.9836 50.1811 93.2745 50.1811 89.9039C50.1811 86.5648 52.8902 83.8242 56.2608 83.8242C59.5999 83.8242 62.3405 86.5648 62.3405 89.9039Z" fill="#A44271"/>
<path d="M36.8876 136.116L35.218 135.517L38.3051 126.603L39.9746 127.17L36.8876 136.116Z" fill="#7B8BAF"/>
<path d="M64.5453 95.6056L56.5441 131.202L54.213 130.666L53.0475 130.414L55.5361 119.452L61.0802 94.8181C61.4897 92.8965 61.3007 90.9749 60.5762 89.2739C60.2612 88.4548 59.7887 87.6988 59.2216 87.0058C58.5286 86.1868 57.7096 85.4623 56.7331 84.9267L55.0321 83.9502L59.7572 82.6902L59.7887 82.6587H59.8202C61.7102 84.1077 63.1278 85.9978 63.9783 88.1083C64.8918 90.4394 65.1438 93.0225 64.5453 95.6056Z" fill="#A44271"/>
<path d="M53.4887 140.747L51.7561 140.337L53.9297 130.603L55.6937 130.981L53.4887 140.747Z" fill="#7B8BAF"/>
<path d="M50.2757 157.82L30.178 153.032C29.0125 152.749 28.3195 151.583 28.5715 150.417L32.6351 133.438C32.9186 132.273 34.0841 131.548 35.2497 131.832L55.3474 136.651C56.5129 136.903 57.2374 138.101 56.9539 139.235L52.8903 156.214C52.6383 157.379 51.4413 158.104 50.2757 157.82Z" fill="#C3DEE7"/>
<path d="M79.4142 79.9181C79.3512 80.0126 79.2882 80.0441 79.2882 80.0441L78.9417 80.8001L77.1461 80.4851C77.1146 80.4536 77.0516 80.4536 77.0201 80.4536C76.7681 80.4536 76.5476 80.5796 76.3901 80.8001C76.2326 81.0206 76.2011 81.3671 76.3586 81.6191L77.3351 83.2887L77.4611 83.4777C77.2091 83.7297 76.9256 83.9817 76.6106 84.1707C76.2641 84.3912 75.8545 84.5802 75.445 84.6747C75.2245 84.7377 75.0355 84.8007 74.815 84.8322L74.752 84.7692C74.689 84.6747 74.626 84.6117 74.563 84.5487C72.799 82.6902 71.6334 80.3906 71.0979 77.9335C70.9089 77.0515 70.8144 76.138 70.8144 75.2244C70.8144 75.1299 70.8144 75.0039 70.8144 74.9094C70.8144 74.8779 70.8144 74.8464 70.8144 74.8149V73.9959L70.8459 73.3659V72.7988L71.3184 71.5703L71.6019 71.3498L73.7125 69.6172L73.744 69.9007L73.9645 71.2868L75.004 77.398C75.067 77.839 75.256 78.2485 75.5081 78.5635C75.7286 78.8155 75.9806 79.0045 76.2641 79.1621C76.3586 79.1936 76.4531 79.2565 76.5476 79.288C76.7051 79.351 76.8626 79.3826 77.0201 79.4141L78.3746 79.6031C78.5006 79.6031 78.6266 79.6346 78.7526 79.6661C78.9731 79.7291 79.1937 79.8236 79.4142 79.9181Z" fill="#EA0000"/>
<path d="M71.7592 72.5469C71.7592 73.9959 71.0346 75.1614 70.0896 75.1614C69.1761 75.1614 68.4201 73.9959 68.4201 72.5469C68.4201 71.0978 69.1761 69.9323 70.0896 69.9323C71.0346 69.9323 71.7592 71.0978 71.7592 72.5469Z" fill="#FFC4B8"/>
<path d="M78.3747 108.584V116.869H56.891C56.45 116.869 56.072 116.774 55.7254 116.554C55.0324 116.176 54.5914 115.388 54.4339 114.349C54.4024 114.317 54.4024 114.286 54.4024 114.286L50.2128 90.5969L62.3407 89.9039L62.0257 97.6846L61.6162 107.481L66.5618 107.796L78.3747 108.584Z" fill="#A44271"/>
<path d="M91.7939 102.945L95.259 96.8972" stroke="#9BC3D3" stroke-width="2.48722" stroke-dasharray="4 4"/>
<path d="M109.34 88.0139C109.34 92.739 105.497 96.5821 100.772 96.5821C96.0465 96.5821 92.2034 92.739 92.2034 88.0139C92.2034 83.2572 96.0465 79.4141 100.772 79.4141C105.497 79.4141 109.34 83.2572 109.34 88.0139Z" fill="#C3DEE7"/>
<path d="M98.3774 87.5098V85.1157C98.3774 83.7927 99.4484 82.7217 100.771 82.7217C102.094 82.7217 103.197 83.7927 103.197 85.1157V87.5098H102.441V85.1788C102.441 84.2652 101.685 83.5092 100.771 83.5092C99.8579 83.5092 99.1019 84.2652 99.1019 85.1788V87.5098H98.3774ZM97.4008 87.5098H104.142C104.268 87.5098 104.394 87.6358 104.394 87.7618V91.416C104.394 91.92 103.985 92.3295 103.481 92.3295H98.0623C97.5583 92.3295 97.1488 91.92 97.1488 91.416V87.7618C97.1488 87.6358 97.2748 87.5098 97.4008 87.5098V87.5098Z" stroke="white" stroke-width="1.25736" stroke-linejoin="round"/>
<path d="M100.772 90.1244C100.614 90.1244 100.457 89.9669 100.457 89.8094V89.1794C100.457 89.0219 100.614 88.8644 100.772 88.8644C100.961 88.8644 101.087 89.0219 101.087 89.1794V89.8094C101.087 89.9669 100.961 90.1244 100.772 90.1244Z" stroke="white" stroke-width="0.973194" stroke-linejoin="round"/>
<path d="M103.355 253.741C103.355 263.884 95.1016 272.137 84.9268 272.137C74.7519 272.137 66.5302 263.884 66.5302 253.741C66.5302 243.566 74.7519 235.313 84.9268 235.313C95.1016 235.313 103.355 243.566 103.355 253.741Z" fill="#9BC3D3"/>
<path d="M101.402 250.465C101.402 260.639 93.1483 268.861 82.9735 268.861C72.7987 268.861 64.5769 260.639 64.5769 250.465C64.5769 240.29 72.7987 232.036 82.9735 232.036C93.1483 232.036 101.402 240.29 101.402 250.465Z" fill="white"/>
<path d="M71.5388 239.723H72.2947C72.7043 239.723 73.1138 239.943 73.3028 240.29L76.2954 245.456" stroke="#EB1D23" stroke-width="1.86542" stroke-linecap="round" stroke-linejoin="round"/>
<path d="M75.3505 243.818H91.4475C92.6445 243.818 93.4006 245.141 92.802 246.212L90.0299 251.032C89.5259 251.851 88.6754 252.355 87.6989 252.355H81.8082C80.8631 252.355 79.9811 251.851 79.5086 251.032L75.3505 243.818V243.818Z" stroke="#EB1D23" stroke-width="1.86542" stroke-linejoin="round"/>
<path d="M77.839 258.151L79.9495 254.465C80.4221 253.646 80.4221 252.638 79.9495 251.819L79.3825 250.811" stroke="#EB1D23" stroke-width="1.86542" stroke-linecap="round" stroke-linejoin="round"/>
<path d="M77.839 259.411H89.0849" stroke="#EB1D23" stroke-width="1.86542" stroke-linejoin="round"/>
<path d="M78.6893 259.411C78.6893 260.387 77.9018 261.206 76.8938 261.206C75.9172 261.206 75.0982 260.387 75.0982 259.411C75.0982 258.434 75.9172 257.615 76.8938 257.615C77.9018 257.615 78.6893 258.434 78.6893 259.411Z" fill="white"/>
<path d="M78.6893 259.411C78.6893 260.387 77.9018 261.206 76.8938 261.206C75.9172 261.206 75.0982 260.387 75.0982 259.411C75.0982 258.434 75.9172 257.615 76.8938 257.615C77.9018 257.615 78.6893 258.434 78.6893 259.411Z" stroke="#EB1D23" stroke-width="1.86542" stroke-linejoin="round"/>
<path d="M91.0063 259.411C91.0063 260.387 90.2188 261.206 89.2108 261.206C88.2343 261.206 87.4468 260.387 87.4468 259.411C87.4468 258.434 88.2343 257.615 89.2108 257.615C90.2188 257.615 91.0063 258.434 91.0063 259.411Z" fill="white"/>
<path d="M91.0063 259.411C91.0063 260.387 90.2188 261.206 89.2108 261.206C88.2343 261.206 87.4468 260.387 87.4468 259.411C87.4468 258.434 88.2343 257.615 89.2108 257.615C90.2188 257.615 91.0063 258.434 91.0063 259.411Z" stroke="#EB1D23" stroke-width="1.86542" stroke-linejoin="round"/>
<path d="M333.785 190.487C333.785 194.141 330.792 197.133 327.138 197.133C323.484 197.133 320.492 194.141 320.492 190.487C320.492 186.833 323.484 183.84 327.138 183.84C330.792 183.84 333.785 186.833 333.785 190.487Z" fill="#FFCC33"/>
<path d="M331.233 190.487C331.233 192.755 329.406 194.582 327.138 194.582C324.87 194.582 323.043 192.755 323.043 190.487C323.043 188.219 324.87 186.392 327.138 186.392C329.406 186.392 331.233 188.219 331.233 190.487Z" stroke="white" stroke-width="0.915139" stroke-linecap="square" stroke-linejoin="round"/>
<path d="M324.051 193.196C324.24 192.692 324.838 192.314 325.563 192.314C325.972 192.314 326.508 192.503 326.823 192.629C327.043 192.692 327.233 192.692 327.422 192.629C327.768 192.471 328.272 192.314 328.713 192.314C329.501 192.314 330.068 192.692 330.257 193.196M327.138 187.746C326.413 187.746 325.689 188.313 325.815 189.069L325.972 190.392C326.067 190.991 326.539 191.4 327.138 191.4C327.737 191.4 328.209 190.991 328.304 190.392L328.461 189.069C328.587 188.313 327.863 187.746 327.138 187.746Z" stroke="white" stroke-width="0.915139" stroke-linecap="round" stroke-linejoin="round"/>
<path d="M331.107 92.7705C331.107 103.67 322.287 112.522 311.388 112.522C300.488 112.522 291.636 103.67 291.636 92.7705C291.636 81.8712 300.488 73.0509 311.388 73.0509C322.287 73.0509 331.107 81.8712 331.107 92.7705Z" fill="#9BC3D3"/>
<path d="M329.028 89.6834C329.028 100.583 320.176 109.403 309.277 109.403C298.378 109.403 289.558 100.583 289.558 89.6834C289.558 78.784 298.378 69.9323 309.277 69.9323C320.176 69.9323 329.028 78.784 329.028 89.6834Z" fill="white"/>
<path d="M303.418 79.2881H315.735C316.491 79.2881 317.089 79.9181 317.089 80.6741V98.6927C317.089 99.4487 316.491 100.047 315.735 100.047H303.418C302.662 100.047 302.032 99.4487 302.032 98.6927V80.6741C302.032 79.9181 302.662 79.2881 303.418 79.2881ZM312.805 83.2572V85.3363V83.2572ZM304.804 81.6191H314.349C314.664 81.6191 314.947 81.8712 314.947 82.2177V86.3758C314.947 86.7223 314.664 86.9743 314.349 86.9743H304.804C304.458 86.9743 304.206 86.7223 304.206 86.3758V82.2177C304.206 81.8712 304.458 81.6191 304.804 81.6191ZM306.127 89.6834C306.127 90.1559 305.749 90.5339 305.277 90.5339C304.804 90.5339 304.426 90.1559 304.426 89.6834C304.426 89.2109 304.804 88.8014 305.277 88.8014C305.749 88.8014 306.127 89.2109 306.127 89.6834ZM310.443 89.6834C310.443 90.1559 310.033 90.5339 309.561 90.5339C309.088 90.5339 308.71 90.1559 308.71 89.6834C308.71 89.2109 309.088 88.8014 309.561 88.8014C310.033 88.8014 310.443 89.2109 310.443 89.6834ZM314.727 89.6834C314.727 90.1559 314.349 90.5339 313.876 90.5339C313.404 90.5339 313.026 90.1559 313.026 89.6834C313.026 89.2109 313.404 88.8014 313.876 88.8014C314.349 88.8014 314.727 89.2109 314.727 89.6834ZM306.127 97.2121C306.127 97.6847 305.749 98.0627 305.277 98.0627C304.804 98.0627 304.426 97.6847 304.426 97.2121C304.426 96.7396 304.804 96.3301 305.277 96.3301C305.749 96.3301 306.127 96.7396 306.127 97.2121ZM310.443 97.2121C310.443 97.6847 310.033 98.0627 309.561 98.0627C309.088 98.0627 308.71 97.6847 308.71 97.2121C308.71 96.7396 309.088 96.3301 309.561 96.3301C310.033 96.3301 310.443 96.7396 310.443 97.2121ZM314.727 97.2121C314.727 97.6847 314.349 98.0627 313.876 98.0627C313.404 98.0627 313.026 97.6847 313.026 97.2121C313.026 96.7396 313.404 96.3301 313.876 96.3301C314.349 96.3301 314.727 96.7396 314.727 97.2121ZM306.127 93.495C306.127 93.9675 305.749 94.3456 305.277 94.3456C304.804 94.3456 304.426 93.9675 304.426 93.495C304.426 93.0225 304.804 92.6445 305.277 92.6445C305.749 92.6445 306.127 93.0225 306.127 93.495ZM310.443 93.495C310.443 93.9675 310.033 94.3456 309.561 94.3456C309.088 94.3456 308.71 93.9675 308.71 93.495C308.71 93.0225 309.088 92.6445 309.561 92.6445C310.033 92.6445 310.443 93.0225 310.443 93.495ZM314.727 93.495C314.727 93.9675 314.349 94.3456 313.876 94.3456C313.404 94.3456 313.026 93.9675 313.026 93.495C313.026 93.0225 313.404 92.6445 313.876 92.6445C314.349 92.6445 314.727 93.0225 314.727 93.495Z" stroke="#EB1D23" stroke-width="1.86542" stroke-linecap="round" stroke-linejoin="round"/>
<path d="M317.688 138.479C317.688 146.826 310.915 153.599 302.567 153.599C294.251 153.599 287.478 146.826 287.478 138.479C287.478 130.131 294.251 123.39 302.567 123.39C310.915 123.39 317.688 130.131 317.688 138.479Z" fill="#7B8BAF"/>
<path d="M316.081 135.801C316.081 144.149 309.309 150.921 300.961 150.921C292.613 150.921 285.872 144.149 285.872 135.801C285.872 127.453 292.613 120.68 300.961 120.68C309.309 120.68 316.081 127.453 316.081 135.801Z" fill="white"/>
<path d="M305.119 129.217V142.385M300.142 134.604L297.055 129.312C296.96 129.123 296.708 129.123 296.582 129.312L293.495 134.635L300.142 134.604ZM296.834 142.385V129.217V142.385ZM308.427 136.998L305.371 142.322C305.277 142.511 304.993 142.511 304.899 142.322L301.811 136.998H308.427Z" stroke="#EB1D23" stroke-width="1.86542" stroke-linecap="round" stroke-linejoin="round"/>
<path d="M29.3907 360.12H58.5921V330.95H29.3907V360.12Z" fill="#DEEDF2"/>
<path d="M78.8472 302.63V374.957H86.2499V299.795L78.8472 302.63Z" fill="white"/>
<path d="M54.8747 325.752V374.957H62.2775V322.885L54.8747 325.752Z" fill="white"/>
<path d="M22.019 333.816V374.957H29.3903V330.95L22.019 333.816Z" fill="white"/>
<path d="M86.2499 374.957H94.5977V299.795H86.2499V374.957Z" fill="#C3DEE7"/>
<path d="M90.4394 389.92H98.7872V311.23C98.7872 306.599 95.0385 302.851 90.4394 302.851V389.92Z" fill="#C3DEE7"/>
<path d="M70.4992 333.848C81.7136 333.848 90.7859 342.952 90.7859 354.134V398.96H70.4992V333.848Z" fill="#C3DEE7"/>
<path d="M62.2773 398.961H82.564V322.885H62.2773V398.961Z" fill="#C3DEE7"/>
<path d="M65.4592 327.075H82.5643V325.437H65.4592V327.075Z" fill="#9BC3D3"/>
<path d="M65.4592 329.406H82.5643V327.768H65.4592V329.406Z" fill="#9BC3D3"/>
<path d="M36.7932 398.96H54.8747V355.206H36.7932V398.96Z" fill="#C3DEE7"/>
<path d="M40.8566 341.345H43.9753V335.297H40.8566V341.345Z" fill="white"/>
<path d="M34.3048 352.748H54.875V358.072H29.3907L34.3048 352.748Z" fill="#C3DEE7"/>
<path d="M29.3907 398.96H36.7935V358.072H29.3907V398.96Z" fill="#C3DEE7"/>
<path d="M62.2775 322.885L78.847 398.96H62.2775V322.885Z" fill="#9BC3D3"/>
<path d="M52.008 330.95C51.3465 332.273 50.433 333.659 49.2674 335.045C41.5812 344.18 40.0061 354.323 37.4546 353.63C37.108 353.536 36.793 353.347 36.541 353.158V330.95H52.008Z" fill="#C3DEE7"/>
<path d="M36.2888 399.937H38.1159V340.715H36.2888V399.937Z" fill="white"/>
<path d="M37.4229 355.363C35.5644 355.205 34.1783 353.599 34.2728 351.74C34.4303 348.149 33.9578 342.574 30.0517 339.864C24.0035 335.643 20.7588 324.587 29.8942 320.113C39.061 315.609 33.1703 305.875 41.5496 304.709C49.9289 303.544 56.2921 314.317 48.4483 328.146C40.573 341.975 40.9511 355.678 37.4229 355.363Z" fill="#9BC3D3"/>
</svg>
