<svg width="358" height="317" viewBox="0 0 358 317" fill="none" xmlns="http://www.w3.org/2000/svg">
<path d="M246.579 0.00165502C238.862 0.0501895 231.509 1.57903 224.787 4.32123C218.866 6.72369 212.435 7.40317 206.126 6.40821C204.379 6.11701 202.607 5.99567 200.787 6.01994C183.752 6.23834 169.895 20.2163 169.798 37.2519C169.725 46.6918 173.85 55.1854 180.427 60.9852C185.402 65.3776 188.993 71.1047 191.08 77.4142C198.846 100.856 220.929 117.746 246.992 117.746C279.534 117.746 305.913 91.3193 305.864 58.7527C305.816 26.2346 279.098 -0.241017 246.579 0.00165502Z" fill="#DEEDF2"/>
<path d="M212.775 102.167C221.074 106.656 230.587 109.204 240.707 109.204C273.249 109.204 299.652 82.7773 299.579 50.2106C299.555 39.169 296.473 28.8312 291.11 19.9736C300.259 30.3357 305.84 43.9254 305.864 58.7527C305.913 91.3436 279.534 117.746 246.992 117.746C233.402 117.746 220.905 113.16 210.955 105.443L212.775 102.167Z" fill="#9BC3D3"/>
<path d="M191.08 77.4144C192.463 81.5884 194.308 85.5925 196.565 89.2811C191.371 83.4084 187.319 76.4923 184.795 68.8724C184.067 66.6883 183.169 64.5771 182.101 62.5872C186.227 66.7369 189.236 71.8572 191.08 77.4144Z" fill="#9BC3D3"/>
<path d="M124.709 44.7501H124.733L124.709 44.7263V44.7501Z" fill="#DEEDF2"/>
<path d="M254.393 165.723C257.451 162.422 261.091 159.51 265.241 157.181C286.693 145.096 313.921 152.691 326.006 174.168C333.335 187.151 333.432 202.221 327.632 214.791C326.2 210.375 324.307 206.055 321.953 201.857C307.902 176.934 281.136 163.709 254.393 165.723Z" fill="#DEEDF2"/>
<path d="M254.393 165.723C255.679 161.403 257.645 157.205 260.339 153.274C274.244 132.938 302.03 127.72 322.366 141.625C334.669 150.046 341.44 163.514 341.78 177.347C338.552 174.022 334.936 170.989 330.956 168.271C307.344 152.109 277.496 152.085 254.393 165.723Z" fill="#DEEDF2"/>
<path d="M254.393 165.723C253.884 161.233 254.054 156.598 254.976 151.939C259.781 127.769 283.271 112.068 307.442 116.873C322.075 119.785 333.577 129.516 339.329 142.111C335.058 140.315 330.544 138.932 325.812 138.009C297.759 132.428 270.288 144.1 254.393 165.723Z" fill="#DEEDF2"/>
<path d="M254.393 165.723C252.404 161.67 251.02 157.229 250.341 152.545C246.774 128.133 263.688 105.491 288.076 101.948C302.807 99.8127 316.93 105.127 326.564 115.077C321.929 114.834 317.197 115.028 312.441 115.732C284.145 119.833 262.159 140.048 254.393 165.723Z" fill="#DEEDF2"/>
<path d="M332.024 190.111L331.782 190.524L329.039 195.28L314.794 219.96C303.704 239.131 283.247 250.949 261.091 250.949H240.003C223.21 272.838 199.258 288.005 172.516 293.927C166.716 295.213 160.77 296.038 154.776 296.426C152.277 296.596 149.802 296.669 147.302 296.669H100.393C58.9208 296.669 29.2419 262.622 29.2419 225.517C29.2419 216.854 30.8678 207.996 34.3381 199.381C35.6 196.251 37.1045 193.145 38.8518 190.111H332.024Z" fill="#DEEDF2"/>
<path d="M145.531 296.668H100.393C58.9208 296.668 29.2419 262.621 29.2419 225.517C29.2419 216.853 30.8678 207.996 34.3381 199.381H89.3519L145.531 296.668Z" fill="#C3DEE7"/>
<path d="M214.959 129.516C185.377 129.516 161.401 153.492 161.401 183.074C161.401 183.413 161.401 183.729 161.401 184.069H25.1409V215.859H172.613C182.417 228.502 197.729 236.631 214.959 236.631C244.541 236.631 268.517 212.655 268.517 183.074C268.517 153.492 244.541 129.516 214.959 129.516Z" fill="white"/>
<path d="M270.264 225.93H300.768V204.963H270.264V225.93Z" fill="#9BC3D3"/>
<path d="M271.841 225.93H299.215V204.963H271.841V225.93Z" fill="white"/>
<path d="M285.528 225.93H299.215V204.963H285.528V225.93Z" fill="#9BC3D3"/>
<path d="M285.528 225.93H271.841V204.963L285.528 225.93Z" fill="#DEEDF2"/>
<path d="M211.246 258.715L201.442 275.702C201.321 275.92 201.03 275.993 200.787 275.872L179.238 263.423C179.019 263.301 178.947 263.01 179.068 262.792L188.872 245.78L211.246 258.715Z" fill="#9BC3D3"/>
<path d="M187.901 238.597L210.275 251.507L200.229 268.907L177.855 255.997L187.901 238.597Z" fill="white"/>
<path d="M31.0864 305.526C32.324 301.328 34.2168 297.251 36.7892 293.417C50.1604 273.639 77.0243 268.421 96.8021 281.793C108.766 289.874 115.415 302.881 115.828 316.301C112.673 313.097 109.154 310.161 105.296 307.564C82.3388 292.058 53.4122 292.179 31.0864 305.526Z" fill="white"/>
<path d="M31.0864 305.526C30.3341 301.207 30.2371 296.717 30.8437 292.155C34.0955 268.494 55.8875 251.944 79.5481 255.196C93.8415 257.137 105.563 265.873 111.872 277.716C107.625 276.236 103.16 275.168 98.5494 274.537C71.1031 270.775 45.21 283.686 31.0864 305.526Z" fill="white"/>
<path d="M31.0863 305.526C28.7081 301.862 26.8396 297.76 25.6262 293.32C19.3167 270.29 32.8821 246.508 55.9117 240.199C69.8169 236.389 84.0132 239.835 94.4724 248.255C89.9829 248.546 85.4692 249.323 80.9555 250.561C54.2373 257.865 35.503 279.9 31.0863 305.526Z" fill="white"/>
<path d="M31.0863 305.526C27.6161 302.857 24.4856 299.629 21.8647 295.843C8.22653 276.26 13.0557 249.323 32.6394 235.661C44.4818 227.434 59.0179 225.929 71.6854 230.37C67.56 232.142 63.5559 234.374 59.7217 237.044C36.9832 252.866 26.6939 279.9 31.0863 305.526Z" fill="white"/>
<path d="M48.5829 88.0919C48.5829 91.4165 45.8893 94.1102 42.5646 94.1102C39.2643 94.1102 36.5706 91.4165 36.5706 88.0919C36.5706 84.7673 39.2643 82.0979 42.5646 82.0979C45.8893 82.0979 48.5829 84.7673 48.5829 88.0919Z" fill="#DEEDF2"/>
<path d="M104.3 85.8594C104.3 90.4216 100.612 94.1103 96.0496 94.1103C91.5116 94.1103 87.823 90.4216 87.823 85.8594C87.823 81.3214 91.5116 77.6328 96.0496 77.6328C100.612 77.6328 104.3 81.3214 104.3 85.8594Z" fill="#DEEDF2"/>
<path d="M72.6561 79.6951C72.6561 84.2573 68.9675 87.946 64.4295 87.946C59.8673 87.946 56.1787 84.2573 56.1787 79.6951C56.1787 75.1571 59.8673 71.4685 64.4295 71.4685C68.9675 71.4685 72.6561 75.1571 72.6561 79.6951Z" fill="#DEEDF2"/>
<path d="M96.6806 73.7256C96.6806 81.9279 90.0314 88.6014 81.8291 88.6014C73.6025 88.6014 66.9533 81.9279 66.9533 73.7256C66.9533 65.5232 73.6025 58.874 81.8291 58.874C90.0314 58.874 96.6806 65.5232 96.6806 73.7256Z" fill="#DEEDF2"/>
<path d="M96.6805 77.6328V94.1103H42.5646V82.098L96.6805 77.6328Z" fill="#DEEDF2"/>
<path d="M112.94 139.392H125.777V92.217H112.94V139.392Z" fill="#DEEDF2"/>
<path d="M56.1301 146.551H76.3689V92.217H56.1301V146.551Z" fill="#DEEDF2"/>
<path d="M36.8619 151.381H57.1008V97.0466H36.8619V151.381Z" fill="#DEEDF2"/>
<path d="M120.268 139.393H137.207V91.5862C137.207 82.2191 129.635 74.6477 120.268 74.6477V139.393Z" fill="#DEEDF2"/>
<path d="M115.148 139.393H120.268V74.6477C117.186 75.8368 115.148 78.7974 115.148 82.122V139.393Z" fill="white"/>
<path d="M90.4439 130.996H95.5643V70.595L90.4439 72.5849V130.996Z" fill="white"/>
<path d="M73.7965 139.393H78.9169V86.6116L73.7965 88.6015V139.393Z" fill="white"/>
<path d="M51.0097 139.392H56.13V92.217L51.0097 94.207V139.392Z" fill="white"/>
<path d="M123.204 139.393H137.207V94.2314H123.204V139.393Z" fill="#DEEDF2"/>
<path d="M95.5643 130.996H106.412V70.595H95.5643V130.996Z" fill="#DEEDF2"/>
<path d="M84.6198 139.393H98.6948V94.2314H84.6198V139.393Z" fill="#DEEDF2"/>
<path d="M78.9171 139.393H92.9921V86.6116H78.9171V139.393Z" fill="#DEEDF2"/>
<path d="M61.2504 139.393H73.7966V109.059H61.2504V139.393Z" fill="#DEEDF2"/>
<path d="M36.8619 156.064H144.633V127.235H36.8619V156.064Z" fill="#DEEDF2"/>
<path d="M130.364 62.3201H129.951V148.178H155.65V87.6065C155.65 73.6529 144.341 62.3201 130.364 62.3201Z" fill="#DEEDF2"/>
<path d="M162.785 184.433V172.93H82.3873V191.106H357.238V184.433H162.785Z" fill="#DEEDF2"/>
<path d="M197.341 96.4639H161.11C122.525 96.4639 86.8767 117.042 67.5843 150.459H31.9842L2.64514 201.298H40.2351C58.2414 201.298 74.8644 191.713 83.8676 176.109C85.4692 173.343 88.4298 171.644 91.6331 171.644H124.855C142.861 171.644 159.484 162.034 168.487 146.43L197.341 96.4639Z" fill="#DEEDF2"/>
<path d="M48.1705 202.342C48.1705 202.342 40.7204 162.835 75.7866 158.442C110.828 154.026 107.747 127.162 132.305 131.093C156.839 135.024 172.006 169.338 172.006 169.338L124.855 171.644L101.025 198.605L48.1705 202.342Z" fill="white"/>
<path d="M144.972 101.487H175.743C208.528 101.487 238.814 118.96 255.194 147.352H285.431L310.378 190.548H278.442C263.13 190.548 249.006 182.394 241.362 169.144C240.003 166.79 237.479 165.334 234.761 165.334H206.538C191.25 165.334 177.126 157.181 169.482 143.931L144.972 101.487Z" fill="#DEEDF2"/>
<path d="M276.38 54.1418L200.52 185.549H147.448L223.307 54.1418H276.38Z" fill="#DEEDF2"/>
<path d="M294.094 184.748H310.135V138.106H294.094V184.748Z" fill="white"/>
<path d="M281.16 146.988C272.764 146.988 265.969 153.783 265.969 162.18V204.817H281.16V146.988Z" fill="white"/>
<path d="M293.852 169.605H310.208V147.74H293.852V169.605Z" fill="#DEEDF2"/>
<path d="M293.852 176.57H310.208V171.644H293.852V176.57Z" fill="#DEEDF2"/>
<path d="M325.399 203.555H330.932V124.371L325.399 126.507V203.555Z" fill="white"/>
<path d="M307.442 203.555H312.974V141.698L307.442 143.834V203.555Z" fill="white"/>
<path d="M330.932 203.555H346.924V124.371H330.932V203.555Z" fill="#9BC3D3"/>
<path d="M334.014 203.555H346.924V124.371H334.014V203.555Z" fill="#DEEDF2"/>
<path d="M312.975 203.555H328.166V141.698H312.975V203.555Z" fill="#C3DEE7"/>
<path d="M280.02 203.555H296.885V149.633H280.02V203.555Z" fill="white"/>
<path d="M312.975 141.698L325.399 203.555H312.975V141.698Z" fill="#9BC3D3"/>
<path d="M282.665 203.07H284.024V154.56H282.665V203.07Z" fill="#DEEDF2"/>
<path d="M334.014 136.844L346.924 124.371H330.932L334.014 136.844Z" fill="#C3DEE7"/>
<path d="M275.409 151.114C275.7 145.702 277.083 144.028 273.856 139.126C271.477 135.51 269.463 130.632 272.351 126.604C274.778 123.279 280.65 122.333 283.951 124.929C287.955 128.108 285.043 134.976 296.715 140.072C301.375 142.111 301.909 148.008 295.162 150.192C292.347 151.09 288.149 151.793 285.455 163.514C283.732 171.037 274.851 161.355 275.409 151.114Z" fill="#C3DEE7"/>
<path d="M69.6227 95.93H67.3901C66.3709 95.93 65.5216 95.1049 65.5216 94.0614V91.8289H69.6227V95.93Z" fill="#4FD0D0"/>
<path d="M86.9493 163.66C86.9493 169.12 82.5085 173.585 77.0241 173.585C71.5397 173.585 67.0988 169.12 67.0988 163.66C67.0988 158.175 71.5397 153.734 77.0241 153.734C82.5085 153.734 86.9493 158.175 86.9493 163.66Z" fill="#DEEDF2"/>
<path d="M78.3832 101.172C79.1355 102.943 78.3104 105.006 76.5389 105.758C74.7674 106.535 72.7047 105.71 71.9524 103.938C71.1758 102.167 72.0009 100.104 73.7725 99.3274C75.544 98.5752 77.6067 99.376 78.3832 101.172Z" fill="#9BC3D3"/>
<path d="M72.3162 124.784C71.5397 125.925 64.672 146.843 64.672 146.843L58.7751 160.578L53.6062 159.219L56.494 148.809L57.7073 144.489L63.9925 121.993L64.211 121.168L72.3162 124.784Z" fill="#2E4369"/>
<path d="M84.2072 163.66C84.2072 169.12 79.7663 173.585 74.2819 173.585C68.7975 173.585 64.3566 169.12 64.3566 163.66C64.3566 158.175 68.7975 153.734 74.2819 153.734C79.7663 153.734 84.2072 158.175 84.2072 163.66Z" fill="#9BC3D3"/>
<path d="M78.8926 126.288C78.2617 127.526 75.7379 146.503 75.7379 146.503L70.6418 162.374L65.3515 161.719L69.6953 145.872L70.6418 123.425L70.7388 122.6L78.8926 126.288Z" fill="#2E4369"/>
<path d="M73.8694 87.0968L74.6217 86.4902C72.9958 84.1848 69.8653 83.3597 67.2687 84.6701C64.3809 86.1019 63.1918 89.6206 64.6236 92.5084C65.1574 93.5762 65.9583 94.4012 66.9047 94.9594L67.9967 95.5661L71.5155 91.8289L69.1616 90.0332L69.5983 87.1696L73.8694 87.0968Z" fill="#4FD0D0"/>
<path d="M73.1413 96.731L73.6509 102.434C73.6509 102.434 72.0735 103.04 70.2535 102.774C69.1615 102.628 67.9724 102.143 67.0259 101.051C67.0259 101.051 68.0452 96.2942 67.4142 92.8725C67.3171 92.3872 67.2201 91.9018 67.0502 91.4165L73.1413 96.731Z" fill="#FFC4B8"/>
<path d="M73.8694 87.0968L74.0393 87.5093C74.3062 88.0432 74.4761 88.6256 74.5731 89.1838C74.6945 89.839 74.7188 90.4699 74.7188 91.0281V91.0523C74.6945 92.0716 74.5489 92.9209 74.4761 93.1879C74.4761 93.204 74.4761 93.2121 74.4761 93.2121C74.4761 93.2607 74.4518 93.3092 74.4518 93.3092L74.4761 93.7703L74.5004 94.6682C74.5004 94.9594 74.4761 95.2506 74.379 95.5418C74.3305 95.7359 74.2334 95.9301 74.1363 96.0999C73.9907 96.3183 73.8451 96.5125 73.651 96.6823C73.5782 96.7551 73.4568 96.8279 73.3598 96.9007C73.3112 96.9493 73.2385 96.9735 73.1899 97.0221C73.1414 97.0463 73.0929 97.0706 73.0443 97.0949L72.8259 97.192L68.749 94.474L68.288 93.9644L68.4093 93.1636L68.5063 92.6782L68.5549 92.3628L68.6762 91.4406L68.7005 91.295L68.9917 89.5478V89.475L69.6227 86.4658L73.8209 87.0968H73.8694Z" fill="#FFC4B8"/>
<path d="M74.5731 89.1594V89.1837L74.8885 90.3485L75.5195 92.7752L74.476 93.2121L74.112 93.3577L74.0877 93.2363L73.9178 92.5083L73.7237 91.7075L74.5731 89.1594Z" fill="#FFC4B8"/>
<path d="M68.6519 91.3679C69.0159 92.0959 68.9431 92.8967 68.4578 93.1394C67.9967 93.3821 67.293 92.9695 66.929 92.2173C66.565 91.465 66.6378 90.6642 67.1232 90.4458C67.5842 90.2031 68.2879 90.6156 68.6519 91.3679Z" fill="#FFC4B8"/>
<path d="M66.4436 100.104C67.2201 101.876 66.395 103.938 64.6235 104.691C62.852 105.467 60.7893 104.642 60.0127 102.871C59.2605 101.099 60.0613 99.0364 61.8571 98.2598C63.6286 97.5075 65.6913 98.3083 66.4436 100.104Z" fill="#9BC3D3"/>
<path d="M30.237 177.953C30.237 177.322 37.0561 176.813 45.5011 176.813C53.9218 176.813 60.7652 177.322 60.7652 177.953C60.7652 178.584 53.9218 179.07 45.5011 179.07C37.0561 179.07 30.237 178.584 30.237 177.953Z" fill="#7B8BAF"/>
<path d="M53.6305 159.122L53.3393 160.19L52.951 161.622L62.8035 164.218L63.9926 164.024L60.4254 162.301C60.4254 162.301 58.7024 161.112 58.7509 160.481L53.6305 159.122Z" fill="#2E4369"/>
<path d="M79.7906 108.209L79.1111 127.38C79.0868 128.157 78.4316 128.788 77.6551 128.788H62.9977C62.391 128.788 61.8571 128.497 61.4931 128.084C61.3475 127.89 61.2504 127.696 61.1776 127.477C61.1291 127.332 61.1048 127.186 61.0805 127.041C61.0805 126.968 61.0805 126.919 61.0805 126.871V103.865L63.3131 101.002L62.5366 98.0412L63.4102 97.8228C64.7449 97.4588 66.1281 97.3375 67.5113 97.4103C67.7055 99.9098 68.9916 101.827 70.5447 101.827C71.8552 101.827 72.9715 100.492 73.4326 98.5751L76.199 99.2061C78.8441 100.128 79.5964 105.394 79.7906 108.209Z" fill="#9BC3D3"/>
<path d="M99.8597 109.665L99.7383 109.787C97.6028 109.641 97.2146 110.563 97.2146 110.563L87.0708 111.558C85.4692 111.704 83.8676 111.388 82.4601 110.587L73.0201 105.321L77.2912 99.7886L86.0759 107.044L94.8606 108.258L99.5928 108.913C99.9568 108.962 100.127 109.398 99.8597 109.665Z" fill="#9BC3D3"/>
<path d="M74.9615 112.432H102.311V109.981H74.9615V112.432Z" fill="#7B8BAF"/>
<path d="M94.6665 111.413L92.3369 115.441L84.9111 128.254L82.5572 128.036L84.6684 115.441L85.2994 111.582L94.6665 111.413Z" fill="#7B8BAF"/>
<path d="M88.4297 110.636L73.7965 165.238" stroke="#7B8BAF" stroke-width="9.61889"/>
<path d="M59.8187 168.853L74.2092 163.66" stroke="#9BC3D3" stroke-width="16.4908"/>
<path d="M72.9715 168.853C72.9715 174.338 68.5306 178.779 63.0705 178.779C57.5861 178.779 53.1451 174.338 53.1451 168.853C53.1451 163.369 57.5861 158.928 63.0705 158.928C68.5306 158.928 72.9715 163.369 72.9715 168.853Z" fill="#DEEDF2"/>
<path d="M99.6411 109.229C100.029 109.132 100.418 109.447 100.369 109.86V109.884L101.073 112.553C101.17 112.917 100.903 113.257 100.539 113.306L99.447 113.378C99.2529 113.403 99.0345 113.306 98.9131 113.111L97.2145 110.563L97.1902 110.515V110.491C97.0689 110.151 97.263 109.811 97.6027 109.714L99.6411 109.229Z" fill="#FFC4B8"/>
<path d="M99.6169 108.913C100.102 108.986 100.418 109.398 100.369 109.859V109.884C97.6998 109.398 97.2144 110.563 97.2144 110.563L94.8605 108.258L99.6169 108.913Z" fill="#9BC3D3"/>
<path d="M69.8896 168.853C69.8896 174.338 65.4487 178.779 59.9643 178.779C54.4799 178.779 50.039 174.338 50.039 168.853C50.039 163.369 54.4799 158.928 59.9643 158.928C65.4487 158.928 69.8896 163.369 69.8896 168.853Z" fill="#9BC3D3"/>
<path d="M70.3021 94.9107L68.4335 96.0027C68.2151 96.0998 67.9481 96.0512 67.8511 95.8328L64.9875 90.8823C64.8662 90.6639 64.939 90.4212 65.1332 90.2999L67.0017 89.2079C67.1959 89.0865 67.4628 89.1593 67.5841 89.3777L70.4476 94.3282C70.569 94.5466 70.4962 94.7893 70.3021 94.9107Z" fill="white"/>
<path d="M68.7247 96.8279L67.293 95.3233C66.9775 94.9836 66.929 94.474 67.1959 94.1099L68.3364 91.7075C68.5306 91.3677 69.0159 91.3192 69.2586 91.6104L69.841 92.3384C69.938 92.4598 69.9866 92.6054 69.9623 92.751L69.9138 94.7652L70.7388 96.1484L68.7247 96.8279Z" fill="#FFC4B8"/>
<path d="M74.3306 101.948L70.2294 94.8137L68.0696 96.3911L71.6855 104.982L65.5944 98.6722L60.9351 104.132L68.555 109.52C70.1081 110.612 72.2436 110.393 73.5298 108.986C75.3256 107.069 75.641 104.205 74.3306 101.948Z" fill="#9BC3D3"/>
<path d="M195.982 93.7217C195.982 93.7217 202.85 94.5225 205.907 96.3668L197.268 100.177L195.982 93.7217Z" fill="#C80000"/>
<path d="M191.032 104.642L178.024 107.166C174.19 107.894 170.89 110.345 169.021 113.791L147.545 153.808L162.469 161.136L176.277 132.719L191.032 104.642Z" fill="#EB1D23"/>
<path d="M178.801 98.6479L176.544 102.239L180.063 112.141L187.319 104.326L181.592 98.6722L178.801 98.6479Z" fill="#C80000"/>
<path d="M173.753 112.747L206.878 112.335L197.244 156.598L179.529 166.426L157.98 157.86L168.56 118.11L173.753 112.747Z" fill="#EB1D23"/>
<path d="M200.107 78.1666C197.754 87.0242 188.678 92.2902 179.82 89.9362C170.963 87.5823 165.697 78.5064 168.051 69.6488C170.405 60.7913 179.48 55.501 188.338 57.8549C197.195 60.2089 202.461 69.3091 200.107 78.1666Z" fill="#A44271"/>
<path d="M202.267 98.7937C202.267 98.7937 190.886 113.572 179.772 118.935L178.413 110.078C179.31 109.204 180.014 108.209 180.548 107.117C180.694 106.85 180.815 106.559 180.912 106.268C181.033 105.928 181.155 105.588 181.252 105.249C181.664 103.696 181.713 102.07 181.397 100.468L180.257 94.8624L180.16 94.4256L181.203 93.4549L195.497 79.8652C195.497 79.8652 194.478 92.9938 202.267 98.7937Z" fill="#FFC4B8"/>
<path d="M179.553 104.302C179.553 104.302 182.781 112.456 193.749 105.346C193.749 105.346 192.099 126.58 191.614 126.701C191.129 126.798 176.665 126.483 176.665 126.483L174.991 115.829L179.553 104.302Z" fill="white"/>
<path d="M181.762 204.113C179.238 203.968 176.738 203.458 174.36 202.56L161.741 197.828C150.505 193.63 140.046 187.636 130.703 180.137L127.864 177.832L141.915 152.012L211.344 167.834C211.344 167.834 211.344 204.113 181.762 204.113Z" fill="#9BC3D3"/>
<path d="M189.042 106.414L177.175 122.988L168.366 156.089L204.306 164.461L211.926 107.457L198.433 100.492C194.647 101.148 191.274 103.283 189.042 106.414Z" fill="#EB1D23"/>
<path d="M175.962 154.026L168.997 153.71L161.887 147.619C161.256 147.085 160.479 146.746 159.678 146.649L152.956 145.726C151.913 145.605 150.894 146.066 150.311 146.916L148.516 149.585C148.443 149.706 148.418 149.828 148.467 149.949L148.661 150.41C148.758 150.653 149.074 150.726 149.268 150.58L149.51 150.386L149.219 150.944C149.074 151.235 149.122 151.599 149.341 151.842L149.996 152.546C150.287 152.861 150.772 152.91 151.088 152.643L154.097 150.143C154.146 150.119 154.218 150.095 154.291 150.095L155.844 150.434C156.038 150.483 156.087 150.75 155.893 150.847L153.879 151.987C153.466 152.206 153.539 152.812 153.976 152.958L155.504 153.468C155.577 153.516 155.699 153.516 155.796 153.492L156.839 153.249C157.155 153.177 157.47 153.225 157.737 153.346L159.217 154.123C159.509 154.269 159.751 154.487 159.945 154.754L160.843 156.161C161.28 156.841 161.911 157.35 162.639 157.642L177.126 163.539L175.962 154.026Z" fill="#FFC4B8"/>
<path d="M149.85 153.274L169.992 160.02" stroke="#FFCC33" stroke-width="13.1694"/>
<path d="M153.879 156.259L113.668 145.581C112.916 145.363 112.382 144.659 112.43 143.858L113.959 114.203C114.008 113.136 115.027 112.383 116.07 112.65L156.257 123.352C157.033 123.546 157.543 124.274 157.494 125.051L155.966 154.73C155.917 155.797 154.898 156.525 153.879 156.259Z" fill="white"/>
<path d="M156.184 124.711L154.655 154.39C154.607 155.433 153.587 156.186 152.568 155.919L135.727 151.429L114.396 145.775L112.357 145.217C111.605 145.023 111.071 144.319 111.12 143.518L112.649 113.839C112.673 113.33 112.94 112.893 113.304 112.602C113.692 112.311 114.226 112.165 114.76 112.311L131.189 116.679L154.946 122.988C155.723 123.207 156.232 123.91 156.184 124.711Z" fill="#FFCC33"/>
<path d="M194.866 85.5435L185.232 97.483C182.926 100.613 178.34 100.905 175.646 98.0654C174.53 96.9005 173.535 95.6629 172.685 94.5466L170.598 91.7316C170.453 91.5375 170.307 91.3434 170.186 91.1492C169.725 90.4455 169.337 89.6932 169.045 88.9166C168.439 87.3393 168.172 85.6406 168.269 83.9176L168.851 74.332C168.973 72.4635 170.065 70.7648 171.739 69.8911C175.355 68.0468 179.504 67.5858 183.412 68.6292C183.703 68.7021 183.994 68.7991 184.285 68.8962L186.493 69.4786C188.144 69.9154 189.6 70.7405 190.789 71.8083C191.759 72.7061 192.56 73.7982 193.118 74.9873C193.531 75.8609 193.822 76.7588 193.968 77.7294C194.162 78.9428 194.138 80.229 193.871 81.5151L194.55 80.6658C194.987 80.7871 194.866 85.5435 194.866 85.5435Z" fill="#FFC4B8"/>
<path d="M168.754 75.8127L171.666 76.201L174.918 90.9312L167.565 90.0091L168.754 75.8127Z" fill="#FFC4B8"/>
<path d="M177.782 100.323C177.782 100.323 176.01 101.269 179.262 106.195C182.538 111.146 182.781 119.736 182.781 119.736L177.223 129.443L168.56 118.11L173.001 106.268C173.923 103.841 175.598 101.754 177.782 100.323Z" fill="#EB1D23"/>
<path d="M143.322 152.716L178.34 176.619L145.53 168.829L143.322 152.716Z" fill="#9BC3D3"/>
<path d="M205.907 96.3669L208.237 102.458L202.243 107.603C202.243 107.603 201.078 103.696 197.268 102.118C196.176 101.657 196.176 100.128 197.268 99.6915L205.907 96.3669Z" fill="#EB1D23"/>
<path d="M197.098 79.4283C197.705 77.1471 197.147 75.0116 195.837 74.6719C194.526 74.3079 192.973 75.8853 192.366 78.1664C191.76 80.4475 192.318 82.5587 193.628 82.9228C194.939 83.2625 196.492 81.7094 197.098 79.4283Z" fill="#FFC4B8"/>
<path d="M109.882 226.221L143.177 168.877L170.914 162.859L149.559 150.847C140.944 145.993 130.024 148.954 125.049 157.496L93.356 211.976L109.882 226.221Z" fill="#9BC3D3"/>
<path d="M94.6665 223.285L127.961 165.941L155.698 159.923L134.343 147.911C125.728 143.057 114.808 146.018 109.833 154.56L78.1405 209.04L94.6665 223.285Z" fill="#9BC3D3"/>
<path d="M174.651 71.8327C172.079 71.4687 169.288 70.862 167.541 68.8964C165.818 66.955 165.964 63.2178 168.415 62.2714C169.167 61.9802 170.089 61.9559 170.647 61.3492C171.302 60.6455 171.132 59.5292 171.496 58.6556C172.37 56.5443 175.355 56.8113 177.612 57.0539C180.039 57.2966 182.49 57.1025 184.916 57.3694C187.343 57.6363 189.843 58.4857 191.371 60.3785C193.895 63.4847 192.342 68.9692 188.508 70.2796C188.508 70.2796 179.383 72.4879 174.651 71.8327Z" fill="#A44271"/>
<path d="M194.793 81.4666C195.036 83.8448 194.308 86.223 192.803 88.0916L185.232 97.483C182.926 100.613 178.34 100.905 175.646 98.0654C175.039 97.4344 174.481 96.7792 173.947 96.1483C173.486 95.5901 173.074 95.0563 172.685 94.5466L172.079 93.7216L172.03 93.6488L171.229 92.581L170.598 91.7316C170.453 91.5375 170.307 91.3434 170.186 91.1492C173.777 89.4748 176.69 91.4162 176.69 91.4162L187.052 85.8347L191.42 69.4543L193.458 74.0409C193.458 74.0409 194.744 78.3361 193.871 81.5152L194.55 80.6658C194.672 80.6901 194.744 81.0055 194.793 81.4666Z" fill="#A44271"/>
<path d="M173.948 96.1483C173.487 95.5902 173.074 95.0563 172.686 94.5467L172.079 93.7216L175.841 92.8237C175.841 92.8237 175.258 95.1048 173.948 96.1483Z" fill="#FFC4B8"/>
<path d="M205.519 100.711L212.338 104.278C220.055 108.331 224.617 116.581 223.938 125.293L221.293 159.001C220.735 166.014 214.692 171.304 207.679 170.916L173.268 169.096C173.268 169.096 177.442 156.088 173.268 153.176L203.723 153.904L204.136 119.809L205.519 100.711Z" fill="#EB1D23"/>
<path d="M109.736 221.198C109.178 224.741 108.766 229.546 108.766 229.546H74.2092C74.2092 229.546 99.1559 212.874 104.616 212.583L109.736 221.198Z" fill="#9BC3D3"/>
<path d="M102.359 210.496C101.777 214.014 95.2247 221.95 95.2247 221.95H60.6681C60.6681 221.95 85.6148 205.278 91.0507 204.987L102.359 210.496Z" fill="#9BC3D3"/>
<path d="M131.189 116.679L114.396 145.775L112.357 145.217C111.605 145.023 111.071 144.319 111.12 143.518L112.649 113.839C112.673 113.33 112.94 112.893 113.304 112.602C113.692 112.311 114.226 112.165 114.76 112.311L131.189 116.679Z" fill="#D39E00"/>
<path d="M152.01 199.211C164.435 199.867 176.52 194.576 188.945 194.795C197.171 194.916 205.131 197.464 212.896 200.182C214.741 200.837 216.658 201.541 218.017 202.948C219.376 204.356 219.958 206.71 218.842 208.311C217.653 209.986 215.275 210.132 213.212 210.107C202.195 210.034 191.177 209.962 180.16 209.889C175.21 209.865 170.21 209.84 165.406 208.603C160.625 207.389 155.966 204.866 153.199 200.764L152.01 199.211Z" fill="white"/>
<path d="M271.987 176.619V178.876C271.987 180.744 270.458 182.273 268.59 182.273H266.066C266.187 181.909 266.26 181.496 266.26 181.06C266.26 179.021 264.61 177.347 262.547 177.347C260.485 177.347 258.834 179.021 258.834 181.06C258.834 181.496 258.907 181.909 259.028 182.273H239.542C239.663 181.909 239.736 181.496 239.736 181.06C239.736 179.021 238.086 177.347 236.023 177.347C233.96 177.347 232.31 179.021 232.31 181.06C232.31 181.496 232.383 181.909 232.504 182.273H227.02V180.332C227.02 179.555 227.166 178.803 227.433 178.123C227.651 177.614 227.918 177.128 228.233 176.691C229.01 175.697 230.102 174.92 231.388 174.58L239.833 172.226L239.979 172.178L246.021 169.751C247.841 169.023 249.807 168.635 251.773 168.635H262.086C263.688 168.635 265.192 169.508 266.017 170.916L266.745 172.178L266.842 172.226L269.779 173.367C271.114 173.901 271.987 175.187 271.987 176.619Z" fill="#DEEDF2"/>
<path d="M238.838 181.059C238.838 182.612 237.576 183.874 236.023 183.874C234.47 183.874 233.208 182.612 233.208 181.059C233.208 179.506 234.47 178.244 236.023 178.244C237.576 178.244 238.838 179.506 238.838 181.059Z" fill="#9BC3D3"/>
<path d="M265.362 181.059C265.362 182.612 264.1 183.874 262.547 183.874C260.994 183.874 259.732 182.612 259.732 181.059C259.732 179.506 260.994 178.244 262.547 178.244C264.1 178.244 265.362 179.506 265.362 181.059Z" fill="#9BC3D3"/>
<path d="M266.843 172.226H239.833L239.979 172.178L246.021 169.751C247.841 169.023 249.807 168.635 251.773 168.635H262.062C263.688 168.635 265.192 169.508 266.018 170.916L266.746 172.178L266.843 172.226Z" fill="#C3DEE7"/>
<path d="M266.843 172.226H253.738L255.801 168.635H262.062C263.688 168.635 265.192 169.508 266.018 170.916L266.746 172.178L266.843 172.226Z" fill="#9BC3D3"/>
<path d="M231.534 176.691L230.733 178.123H227.432C227.651 177.614 227.918 177.128 228.233 176.691H231.534Z" fill="white"/>
<path d="M29.1449 165.383H33.1005V83.1899H29.1449V165.383Z" fill="#DEEDF2"/>
<path d="M1.26178 83.6267C0.946307 83.6025 0.92204 83.1171 1.26178 83.0929L27.6403 81.0059L30.9892 83.1171C31.0377 83.1414 31.0377 83.2385 30.9892 83.2627L27.6646 85.3982L1.26178 83.6267Z" fill="#DEEDF2"/>
<path d="M46.4476 108.501C46.5932 108.816 46.1806 109.059 45.9865 108.792L30.8679 87.0725L30.9893 83.117C30.9893 83.0442 31.0621 82.9957 31.1349 83.0442L34.6536 84.84L46.4476 108.501Z" fill="#DEEDF2"/>
<path d="M46.1564 57.5393C46.302 57.2481 45.8651 57.0054 45.6953 57.2723L30.8438 79.1614L30.9893 83.117C30.9893 83.1898 31.0621 83.214 31.1349 83.1898L34.6294 81.3455L46.1564 57.5393Z" fill="#DEEDF2"/>
<path d="M33.1005 83.1898C33.1005 84.2818 32.2026 85.1554 31.1348 85.1554C30.0428 85.1554 29.1449 84.2818 29.1449 83.1898C29.1449 82.0977 30.0428 81.2241 31.1348 81.2241C32.2026 81.2241 33.1005 82.0977 33.1005 83.1898Z" fill="#DEEDF2"/>
<path d="M239.906 280.143C239.906 282.278 238.159 284.025 236.023 284.025C233.888 284.025 232.165 282.278 232.165 280.143C232.165 278.007 233.888 276.284 236.023 276.284C238.159 276.284 239.906 278.007 239.906 280.143Z" fill="#DEEDF2"/>
<path d="M276.355 214.888L273.37 212.413L275.821 209.428L278.831 211.879L276.355 214.888Z" fill="#7B8BAF"/>
<path d="M197.681 222.047L194.696 219.596L197.147 216.587L200.156 219.062L197.681 222.047Z" fill="#DEEDF2"/>
<path d="M306.204 103.501L291.668 128.667H266.818L257.257 145.241H242.017L224.278 175.988" stroke="white" stroke-width="2.74847" stroke-dasharray="5 5"/>
<path d="M244.662 145.168C244.662 143.736 243.522 142.572 242.09 142.572C240.658 142.572 239.493 143.736 239.493 145.168C239.493 146.6 240.658 147.74 242.09 147.74C243.522 147.74 244.662 146.6 244.662 145.168Z" fill="white"/>
<path d="M259.854 145.168C259.854 143.736 258.713 142.572 257.281 142.572C255.849 142.572 254.685 143.736 254.685 145.168C254.685 146.6 255.849 147.74 257.281 147.74C258.713 147.74 259.854 146.6 259.854 145.168Z" fill="white"/>
<path d="M269.415 128.666C269.415 127.235 268.25 126.07 266.818 126.07C265.386 126.07 264.246 127.235 264.246 128.666C264.246 130.098 265.386 131.263 266.818 131.263C268.25 131.263 269.415 130.098 269.415 128.666Z" fill="white"/>
<path d="M294.289 128.666C294.289 127.235 293.124 126.07 291.692 126.07C290.26 126.07 289.096 127.235 289.096 128.666C289.096 130.098 290.26 131.263 291.692 131.263C293.124 131.263 294.289 130.098 294.289 128.666Z" fill="white"/>
<path d="M308.801 103.501C308.801 102.07 307.636 100.905 306.204 100.905C304.772 100.905 303.607 102.07 303.607 103.501C303.607 104.909 304.772 106.074 306.204 106.074C307.636 106.074 308.801 104.909 308.801 103.501Z" fill="#9BC3D3"/>
<path d="M43.681 117.698L31.4988 138.81H0L12.1821 117.698H43.681Z" fill="#DEEDF2"/>
<path d="M14.3176 188.024H17.1326V135.583H14.3176V188.024Z" fill="#DEEDF2"/>
<path d="M14.3176 147.741H17.1326V135.583H14.3176V147.741Z" fill="#C3DEE7"/>
<path d="M43.681 117.698L31.4988 138.81H0L1.96564 135.413H25.9902L36.2067 117.698H43.681Z" fill="#C3DEE7"/>
<path d="M187.95 266.917L186.639 269.198C184.237 273.348 185.669 278.662 189.818 281.065L202.898 288.612C207.072 291.014 212.387 289.583 214.765 285.433L217.362 280.944" stroke="#C3DEE7" stroke-width="9.61889"/>
<path d="M187.125 256.239L186.494 257.331C185.96 258.229 186.275 259.394 187.173 259.904L190.789 261.991L193.313 257.623L189.697 255.536C188.799 255.026 187.634 255.317 187.125 256.239V256.239Z" stroke="#C3DEE7" stroke-width="5.49694"/>
<path d="M209.96 251.871L228.306 262.452C229.665 263.228 230.126 264.951 229.35 266.31L216.318 288.879C215.542 290.214 213.819 290.675 212.484 289.898L194.138 279.318C186.979 275.168 184.528 266.043 188.654 258.909L189.552 257.331C193.677 250.197 202.826 247.746 209.96 251.871Z" fill="#C3DEE7"/>
<path d="M225.491 260.826L228.306 262.452C229.665 263.228 230.126 264.951 229.35 266.31L216.318 288.879C215.542 290.214 213.819 290.675 212.484 289.898L209.645 288.248L225.491 260.826Z" fill="#DEEDF2"/>
<path d="M214.304 258.715L223.938 264.272C225.2 265 225.637 266.626 224.909 267.888L215.469 284.22C214.741 285.482 213.115 285.918 211.853 285.19L202.219 279.633C200.957 278.905 200.52 277.279 201.248 276.017L210.688 259.685C211.416 258.424 213.042 257.987 214.304 258.715Z" fill="#DEEDF2"/>
<path d="M215.711 259.516L223.938 264.272C225.2 265 225.637 266.626 224.909 267.888L215.469 284.22C214.741 285.482 213.115 285.918 211.853 285.19L203.626 280.434L215.711 259.516Z" fill="#9BC3D3"/>
<path d="M219.643 264.83L217.968 267.742L220.88 269.416L222.555 266.504L219.643 264.83Z" fill="#C3DEE7"/>
<path d="M207.727 279.366C207.509 279.73 207.048 279.852 206.684 279.657L204.743 278.517L205.495 277.206L207.461 278.323C207.825 278.541 207.946 279.002 207.727 279.366Z" fill="white"/>
<path d="M252.646 225.129L235.708 254.274L252.646 225.129Z" fill="white"/>
<path d="M238.183 255.269C237.503 255.269 236.824 255.22 236.169 255.147L255.121 222.557C257.548 225.954 258.956 230.128 258.956 234.617C258.907 246.047 249.613 255.293 238.183 255.269ZM248.812 209.477L223.841 252.721C220.589 258.351 223.574 265.558 229.859 267.257L268.565 277.716L277.52 237.068L259.514 209.21C256.966 205.278 251.166 205.424 248.812 209.477Z" fill="#9BC3D3"/>
<path d="M285.528 265.364L283.053 269.368L280.384 273.663C277.86 276.575 274.365 277.983 270.895 277.959C270.118 277.959 269.342 277.862 268.565 277.716C268.549 277.716 268.541 277.716 268.541 277.716C268.525 277.716 268.509 277.708 268.493 277.692C267.959 277.595 267.425 277.449 266.891 277.255H266.867C264.222 276.333 261.843 274.513 260.266 271.819L258.834 269.417L256.116 264.806L254.539 262.112L262.717 262.962L267.765 263.496L269.9 263.738L270.847 263.835L272.861 264.029L285.528 265.364Z" fill="#FFCC33"/>
<path d="M260.266 269.271L258.834 269.417L254.539 262.112L272.861 264.029C269.245 266.941 264.877 268.762 260.266 269.271Z" fill="#D39E00"/>
<path d="M264.076 252.308L243.327 250.731L231.436 228.041L226.17 230.807L233.062 252.963C234.3 256.992 237.576 260.098 241.677 261.142L269.318 268.155L264.076 252.308Z" fill="#FFCC33"/>
<path d="M228.913 243.135L237.746 227.992L222.797 214.67L209.547 227.75L228.913 243.135Z" fill="#DEEDF2"/>
<path d="M293.828 249.615C293.367 251.799 292.541 253.934 291.328 255.9L285.528 265.364L283.053 269.368C282.932 269.417 282.81 269.465 282.689 269.514C278.661 270.824 274.293 271.261 270.434 269.975C270.24 269.926 270.07 269.853 269.876 269.781C268.978 269.465 268.129 269.028 267.328 268.494C266.77 268.13 266.236 267.718 265.751 267.257C265.338 266.893 264.95 266.48 264.562 266.044L262.717 262.962L257.039 253.522L257.985 251.993L258.058 251.871L260.46 247.867L261.601 245.999L262.814 243.985L263.154 243.451L263.858 242.262L266.915 237.238L268.687 234.86L263.251 230.953L261.382 229.618L256.966 226.439L255.631 225.493L252.768 225.153H252.695L242.77 224.037L241.944 223.94L241.314 223.867L239.445 223.649L237.043 223.382L238.96 216.441L244.201 216.465L246.992 216.49L255.607 216.538C258.519 216.563 261.431 216.878 264.27 217.533C267.546 218.285 270.75 219.475 273.759 221.052C279.219 223.915 285.674 228.114 290.018 233.501C293.706 238.112 294.992 244.057 293.828 249.615Z" fill="#FFCC33"/>
<path d="M293.828 249.614C293.367 251.798 292.542 253.934 291.328 255.9L285.528 265.364L283.053 269.368L280.384 273.663C277.86 276.575 274.365 277.983 270.895 277.958L270.434 269.975L270.216 265.97C270.167 265.218 270.046 264.466 269.9 263.738C268.687 257.841 264.076 253.133 258.058 251.871L260.46 247.867L261.601 245.999L262.814 243.984L263.154 243.451L263.858 242.261L266.915 237.238L268.687 234.86L277.011 234.836C282.908 234.836 288.295 238.185 290.843 243.499L293.828 249.614Z" fill="#2E4369"/>
<path d="M272.206 246.727C268.711 248.571 264.61 248.158 261.601 245.999L262.814 243.984L263.154 243.451L263.858 242.261L266.915 237.238L268.687 234.86L263.251 230.953L261.382 229.618C261.819 229.278 262.28 228.987 262.766 228.72C267.74 226.124 273.88 228.041 276.501 233.016C279.098 237.99 277.18 244.13 272.206 246.727Z" fill="#723846"/>
<path d="M271.963 242.674C269.002 244.251 265.629 244.373 262.717 243.281C261.892 242.989 261.091 242.601 260.363 242.116C260.072 241.922 259.781 241.703 259.514 241.485C258.3 240.539 257.281 239.301 256.505 237.845C254.757 234.496 254.83 230.686 256.359 227.531C257.378 225.396 259.077 223.576 261.334 222.387C266.939 219.45 273.856 221.61 276.792 227.24C279.728 232.822 277.568 239.762 271.963 242.674Z" fill="#4FD0D0"/>
<path d="M271.38 242.965C267.91 244.542 264.003 244.251 260.897 242.431L261.576 240.878C264.319 243.014 267.934 243.839 271.38 242.965Z" fill="#723846"/>
<path d="M262.838 241.17C263.057 241.97 263.008 242.747 262.717 243.281C261.552 242.868 260.484 242.262 259.514 241.485C259.392 240.466 259.805 239.544 260.533 239.325C261.431 239.058 262.45 239.883 262.838 241.17Z" fill="#723846"/>
<path d="M248.278 217.776L237.746 227.992L233.985 243.523L215.129 227.774L222.798 214.67L230.417 201.104L248.278 217.776Z" fill="white"/>
<path d="M263.178 239.422C265.241 243.863 271.235 243.96 273.929 247.964C275.87 250.852 275.506 254.856 275.482 258.496C275.482 262.136 276.331 266.432 279.34 267.791C282.01 268.98 285.407 266.577 285.625 263.374C285.819 260.389 283.708 257.671 283.999 254.686C284.266 251.75 286.717 249.711 287.785 247.018C288.853 244.324 288.368 240.951 286.596 238.767C284.461 236.146 280.869 235.321 279.073 232.385C278.03 230.637 277.763 228.332 276.404 226.852C274.705 225.007 271.817 225.25 269.827 226.658C267.837 228.089 266.551 230.419 265.338 232.724L263.178 239.422Z" fill="#4FD0D0"/>
<path d="M261.577 240.878L260.363 242.116C260.072 241.922 259.781 241.703 259.514 241.485C258.3 240.538 257.281 239.301 256.505 237.845C254.757 234.496 254.83 230.686 256.359 227.531C256.359 227.531 253.86 238.063 261.577 240.878Z" fill="#723846"/>
<path d="M248.278 217.776L237.746 227.992L222.797 214.67L230.417 201.104L248.278 217.776Z" fill="#C3DEE7"/>
</svg>
